<?xml version="1.0" encoding="UTF-8" standalone="no"?>
<!-- Created with Inkscape (http://www.inkscape.org/) -->

<svg
   xmlns:dc="http://purl.org/dc/elements/1.1/"
   xmlns:cc="http://creativecommons.org/ns#"
   xmlns:rdf="http://www.w3.org/1999/02/22-rdf-syntax-ns#"
   xmlns:svg="http://www.w3.org/2000/svg"
   xmlns="http://www.w3.org/2000/svg"
   xmlns:sodipodi="http://sodipodi.sourceforge.net/DTD/sodipodi-0.dtd"
   xmlns:inkscape="http://www.inkscape.org/namespaces/inkscape"
   version="1.1"
   id="svg29"
   xml:space="preserve"
   width="1225.826"
   height="424.85599"
   viewBox="0 0 1225.826 424.85599"
   sodipodi:docname="wonderful jogja.svg"
   inkscape:version="0.92.5 (2060ec1f9f, 2020-04-08)"><metadata
     id="metadata35"><rdf:RDF><cc:Work
         rdf:about=""><dc:format>image/svg+xml</dc:format><dc:type
           rdf:resource="http://purl.org/dc/dcmitype/StillImage" /><dc:title></dc:title></cc:Work></rdf:RDF></metadata><defs
     id="defs33" /><sodipodi:namedview
     pagecolor="#ffffff"
     bordercolor="#666666"
     borderopacity="1"
     objecttolerance="10"
     gridtolerance="10"
     guidetolerance="10"
     inkscape:pageopacity="0"
     inkscape:pageshadow="2"
     inkscape:window-width="1294"
     inkscape:window-height="704"
     id="namedview31"
     showgrid="false"
     inkscape:zoom="0.5"
     inkscape:cx="422.1342"
     inkscape:cy="195.78447"
     inkscape:window-x="72"
     inkscape:window-y="27"
     inkscape:window-maximized="1"
     inkscape:current-layer="g37" /><g
     id="g37"
     inkscape:groupmode="layer"
     inkscape:label="ink_ext_XXXXXX"
     transform="matrix(1.3333333,0,0,-1.3333333,0,424.85602)"><path
       inkscape:connector-curvature="0"
       id="path105"
       style="fill:#ffffff;fill-opacity:1;fill-rule:nonzero;stroke:none;stroke-width:0.08305309"
       d="m 273.3534,207.17958 c 0,0.82306 0,1.48582 0,2.14942 0,6.33113 0.003,12.66227 -0.007,18.99341 -8.3e-4,0.7292 -0.004,1.46754 -0.1279,2.18429 -0.35879,2.08547 -1.77983,3.23409 -4.08289,3.34621 -0.72672,0.0349 -1.45759,0.005 -2.35041,0.005 0,0.89449 0,1.58632 0,2.44924 0,0.23753 4.78635,0.17275 5.17836,0.17192 1.91853,-0.003 4.09452,0.18521 5.56871,-1.14946 0.45929,-0.41526 0.82306,-0.90943 1.12288,-1.42851 0.24335,-0.42274 0.47091,-0.85378 0.81143,-1.47336 0.55812,0.36626 1.0282,0.65363 1.47253,0.97006 2.08463,1.48997 4.35115,2.59209 6.98975,3.10702 6.90005,1.34629 11.85583,-2.3122 13.59745,-7.13426 0.59383,-1.64529 0.77987,-3.45252 0.86957,-5.19664 0.13953,-2.7341 0.002,-5.47818 0.0581,-8.21727 0.0216,-1.02487 0.14618,-2.07217 0.42108,-3.06466 0.53653,-1.93181 1.53648,-2.59208 3.74154,-2.65853 0.85628,-0.0257 1.71422,-0.004 2.71501,-0.004 0,-1.13118 0,-2.01238 0,-3.00154 -0.47423,-0.0839 -0.91358,-0.22424 -1.3546,-0.22839 -2.28728,-0.0233 -4.57456,-0.0366 -6.86101,-0.004 -2.27317,0.0324 -3.67676,0.93601 -4.29468,2.93012 -0.33968,1.09713 -0.49001,2.27233 -0.5116,3.41597 -0.0656,3.4085 0.0374,6.81949 -0.0565,10.22633 -0.0399,1.44512 -0.19434,2.94174 -0.66442,4.31211 -1.3056,3.80882 -5.78714,5.67917 -9.89827,4.2573 -1.93016,-0.66691 -3.51149,-1.80225 -4.81542,-3.22495 -0.98086,-1.07138 -1.26988,-2.36535 -1.26075,-3.75815 0.0324,-5.29629 0.0158,-10.59259 0.007,-15.88972 -8.3e-4,-0.65612 -0.059,-1.31223 -0.0988,-2.12615 -2.10623,-0.22508 -4.05466,-0.26661 -6.17002,0.0415" /><path
       inkscape:connector-curvature="0"
       id="path107"
       style="fill:#ffffff;fill-opacity:1;fill-rule:nonzero;stroke:none;stroke-width:0.08305309"
       d="m 257.70786,221.87749 c -0.11793,0.78817 -0.19434,2.13778 -0.5415,3.4276 -0.6935,2.57547 -1.79312,4.99315 -4.22492,6.67663 -2.45754,1.70259 -5.33366,1.6619 -7.48806,-0.33221 -1.1943,-1.1046 -2.25323,-2.46003 -2.92098,-3.87692 -1.95341,-4.14351 -1.9858,-8.40912 -0.24501,-12.63901 0.70928,-1.72336 1.7408,-3.30303 3.34704,-4.49235 2.33878,-1.73082 5.29962,-1.70674 7.5487,0.0972 0.69598,0.55811 1.30809,1.22918 1.83713,1.92434 1.98248,2.60454 2.56053,5.57618 2.6876,9.21474 z m -23.91181,-0.50829 c -0.008,4.76642 1.89444,8.82605 5.79212,12.00034 6.15174,5.00976 14.82498,4.44002 20.54816,-1.22835 6.09527,-6.03547 5.74894,-16.59899 -0.73086,-22.28896 -6.96317,-6.11437 -17.51424,-4.94332 -22.73662,2.52398 -1.89693,2.71335 -2.86782,5.75724 -2.8728,8.99299" /><path
       inkscape:connector-curvature="0"
       id="path109"
       style="fill:#ffffff;fill-opacity:1;fill-rule:nonzero;stroke:none;stroke-width:0.08305309"
       d="m 359.26352,226.62231 c 1.5481,-0.0224 2.86616,-0.0573 4.18421,-0.0581 1.74079,-8.3e-4 3.4874,-0.0507 5.22155,0.0606 1.74245,0.11129 2.30638,0.84382 2.13695,2.43429 -0.18354,1.71504 -1.00494,3.13857 -2.47,4.22408 -1.97168,1.4609 -4.58453,1.40775 -6.40754,-0.17525 -1.95507,-1.6976 -2.45837,-3.90349 -2.66517,-6.48561 z m 8.33686,-2.66351 c -1.88115,0 -3.76728,0.0739 -5.64345,-0.0183 -2.53229,-0.12458 -3.50817,-1.11292 -3.34455,-3.40186 0.2475,-3.4683 1.71421,-6.50804 4.44168,-8.95312 3.06881,-2.75072 6.87596,-3.04141 10.89241,-2.34874 0.59134,0.10132 1.16108,0.30231 1.74412,0.44599 0.76658,0.18936 1.34462,-0.0399 1.60956,-0.71841 0.24501,-0.62622 -0.1578,-1.04979 -0.70678,-1.35875 -0.28238,-0.15863 -0.59715,-0.27739 -0.91109,-0.38121 -4.62273,-1.52652 -9.30444,-1.78398 -14.04511,-0.495 -4.62689,1.25743 -7.60517,4.06047 -8.92737,8.20482 -1.49164,4.67506 -1.36041,9.39247 0.24666,14.03265 3.38193,9.76538 17.12389,9.41407 21.89695,4.32125 1.25327,-1.33715 2.1328,-2.80304 2.45837,-4.52141 0.51742,-2.72912 -1.22005,-4.67672 -4.2681,-4.7606 -1.81222,-0.0498 -3.62859,-0.009 -5.4433,-0.009 0,-0.0125 0,-0.0258 0,-0.0382" /><path
       inkscape:connector-curvature="0"
       id="path111"
       style="fill:#ffffff;fill-opacity:1;fill-rule:nonzero;stroke:none;stroke-width:0.08305309"
       d="m 232.87499,239.07861 c -1.68266,0.0448 -3.08792,0.0664 -4.42507,0.0664 -1.3438,0 -2.60288,-0.0224 -3.84785,-0.0664 l -0.40364,-0.0149 v -3.02147 l 0.33803,-0.0623 c 1.50907,-0.27407 2.2225,-0.54068 2.46086,-0.9194 0.19435,-0.30812 0.14451,-0.80893 -0.16943,-1.65857 l -6.12516,-13.99444 c -0.20847,0.3837 -0.36793,0.67854 -0.5033,0.98335 l -0.19518,0.43104 -1.29147,2.5381 c -2.83211,5.56373 -7.23393,14.21454 -7.99552,15.70285 l -0.39949,0.78153 -0.36959,-0.79316 c -2.33047,-5.00228 -7.94735,-17.0101 -9.49795,-20.32641 l -5.32287,12.31013 v 0.0108 l -1.39446,3.0605 c -0.61376,1.36373 -1.21258,2.41186 -1.88115,3.29555 -0.48586,0.65944 -1.37204,1.46921 -2.2715,1.58299 -1.11042,0.13372 -2.28646,0.19601 -3.69919,0.19601 -1.11125,0 -2.24077,-0.0399 -3.33292,-0.0781 l -0.67771,-0.0233 v -2.82463 l 0.0149,-0.28321 0.29317,-0.0847 c 0.12791,-0.0365 0.25913,-0.0739 0.45846,-0.0739 0.003,0 0.18271,0.002 0.18271,0.002 1.82136,0 2.95254,-0.78652 3.79055,-2.64358 l 12.87987,-25.53883 0.42689,0.36793 c 0.0714,0.0606 0.0997,0.12624 0.1387,0.20514 l 0.0465,0.0947 c 0.21345,0.48005 0.83551,1.90108 1.66688,3.80134 2.11702,4.83618 6.23313,14.24028 7.48723,16.91708 1.75325,-3.61779 9.11508,-18.84059 10.03115,-20.74334 l 0.40447,-0.84049 13.53599,31.02365 0.0424,0.0723 v 0.0723 l 0.13039,0.46094 -0.52572,0.0141" /><path
       inkscape:connector-curvature="0"
       id="path113"
       style="fill:#ffffff;fill-opacity:1;fill-rule:nonzero;stroke:none;stroke-width:0.08305309"
       d="m 334.2363,211.91693 c -3.72909,-4.27474 -11.34339,-3.64354 -14.27351,1.22088 -0.75495,1.25244 -1.19679,2.70504 -1.51904,4.11445 -0.60545,2.64358 -0.46426,5.32204 0.0299,7.97808 0.32806,1.76322 1.05062,3.39355 2.21254,4.84283 3.13857,3.91512 8.96641,4.44583 12.87489,1.15111 1.22835,-1.03567 2.28728,-2.23662 2.84456,-3.63025 v -11.91396 c -0.41692,-1.36374 -1.17769,-2.6278 -2.16934,-3.76314 z m 12.198,-1.66272 c -1.99576,0.12375 -2.95835,0.82887 -3.33042,2.5979 -0.23671,1.1262 -0.31228,2.29392 -0.31561,3.44338 -0.005,1.82135 -0.006,3.64271 -0.007,5.46406 0,3.95914 0.006,7.91911 8.3e-4,11.87825 -0.005,3.82377 0.23089,7.7364 -0.17607,11.54438 -0.29069,2.71999 -0.73917,5.67751 -4.09452,6.38429 -2.39442,0.50414 -4.87106,0.0631 -7.28459,-0.0407 -0.936,-0.0407 -0.87953,-0.48337 -0.86043,-1.17271 0.002,-0.0839 0.0498,-1.24829 0.0233,-1.24746 0.84382,-0.0382 1.50492,-0.0739 2.16685,-0.0963 1.78731,-0.0598 2.98825,-0.72838 3.54637,-2.29808 0.14036,-0.39533 0.24501,-0.79897 0.33304,-1.20593 v -12.98701 c -0.7101,0.54233 -1.2134,0.91441 -1.70009,1.3031 -1.53815,1.22753 -3.27894,2.11287 -5.26806,2.58295 -6.14593,1.45343 -11.45468,-1.1835 -14.77431,-5.30792 -3.55052,-4.41012 -4.14767,-9.43732 -3.05719,-14.63811 1.2649,-6.02882 5.39928,-9.47137 12.10167,-10.3426 0.99414,-0.12956 2.00739,-0.18022 3.01233,-0.18355 3.80051,-0.0108 6.73312,1.4144 8.71061,4.39019 0.25165,0.37872 0.58303,0.71426 0.96674,1.17686 0.19517,-0.36792 0.34301,-0.52157 0.35214,-0.68103 0.15864,-2.72082 2.30307,-3.87194 5.08534,-3.83706 1.681,0.0216 3.36199,-0.007 5.04216,0.009 0.85129,0.008 1.70176,0.0689 2.61534,0.1088 0,1.07222 0,1.95341 0,3.14522 -1.22254,0 -2.15938,-0.0482 -3.08875,0.01" /><path
       inkscape:connector-curvature="0"
       id="path117"
       style="fill:#ffffff;fill-opacity:1;fill-rule:nonzero;stroke:none;stroke-width:0.08305309"
       d="m 406.23253,232.77239 c 0,0 -0.15282,0.47091 -0.41527,1.02321 -0.044,0.10216 -0.0947,0.20681 -0.15365,0.31395 -0.007,0.0133 -0.0166,0.0232 -0.0233,0.0365 -0.23421,0.4352 -0.52573,0.87206 -0.8596,1.13616 -0.002,-8.3e-4 -0.006,-0.008 -0.008,-0.01 -1.23749,1.22171 -3.0522,1.73913 -4.98401,1.31058 -2.05723,-0.45513 -3.61032,-1.55476 -4.8719,-3.04722 -0.33553,-0.397 -0.69349,-0.77904 -1.18932,-1.333 -0.24334,0.54981 -0.36626,0.82056 -0.48336,1.09464 -0.97754,2.29143 -2.29725,3.13608 -5.02306,3.1693 -1.67933,0.0199 -3.35949,0.0174 -5.03966,-0.004 -0.57389,-0.007 -1.14613,-0.10382 -1.77567,-0.16528 0,-0.81558 0,-1.45675 0,-2.39276 0.99165,0 1.72501,0.0291 2.45422,-0.005 2.29475,-0.10797 3.42261,-0.98916 3.78805,-3.06964 0.17856,-1.01574 0.23338,-2.05723 0.2367,-3.08708 0.0208,-6.14261 0.006,-12.28522 0.0183,-18.42699 8.3e-4,-0.70512 0.0972,-1.41024 0.14534,-2.06387 2.31303,-0.41859 4.29136,-0.36294 5.85525,0.18105 0,0.593 -0.002,1.25244 0,1.91189 0.01,4.37855 -0.0216,8.75794 0.0532,13.13567 0.0274,1.57386 0.17524,3.16931 0.52074,4.70828 0.28903,1.29065 0.76492,2.60704 1.47918,3.74653 1.431,2.28313 4.15348,2.60703 6.30456,0.86375 0.43271,-0.35049 0.67522,-0.89282 1.06723,-1.43018 l 1.86122,1.53981 c 0.044,0.0332 0.088,0.0698 0.13205,0.10215 0.10797,0.0781 0.20099,0.15863 0.27989,0.2392 l 0.63121,0.5224" /><path
       inkscape:connector-curvature="0"
       id="path119"
       style="fill:#ffffff;fill-opacity:1;fill-rule:nonzero;stroke:none;stroke-width:0.08305309"
       d="m 417.03109,240.07359 v -0.20431 c 0,0.0681 0,0.1362 0,0.20431" /><path
       inkscape:connector-curvature="0"
       id="path121"
       style="fill:#ffffff;fill-opacity:1;fill-rule:nonzero;stroke:none;stroke-width:0.08305309"
       d="m 422.86142,239.19987 v 3.13608 c -0.0349,-1.03318 -0.0382,-2.07466 0,-3.13608" /><path
       inkscape:connector-curvature="0"
       id="path123"
       style="fill:#ffffff;fill-opacity:1;fill-rule:nonzero;stroke:none;stroke-width:0.08305309"
       d="m 422.86142,242.77115 c 0,0 0.0133,-0.006 0.0149,-0.007 0.0448,0.99165 0.1171,1.97915 0.26161,2.96333 0.0432,0.29899 0.14867,0.59466 0.25498,0.88203 0.62871,1.69926 1.56887,2.32465 3.55799,2.39857 0.78319,0.0282 1.56555,0.0789 2.36867,0.12043 0,0.87537 0,1.56056 0,2.45588 -2.71915,0 -5.26224,0.0382 -7.80366,-0.0125 -2.09626,-0.0415 -3.41515,-0.93767 -3.94669,-2.79225 -0.33387,-1.16357 -0.47174,-2.39442 -0.51243,-3.59952 -0.0565,-1.69013 -0.0316,-3.38192 -0.0258,-5.07288 v 0 -0.0341 c 0,-0.0681 0,-0.13621 0,-0.20431 v -3.39604 h -6.72149 v -2.26735 h 6.72149 v -2.94839 l -0.004,8.3e-4 c 0.0125,-5.37187 0.0149,-10.74291 -0.0125,-16.11479 -0.004,-0.71924 -0.12707,-1.46256 -0.34882,-2.15356 -0.62955,-1.95424 -1.6918,-2.66019 -3.93672,-2.76235 -0.7807,-0.0357 -1.55974,-0.0955 -2.43595,-0.15033 0,-1.06308 0,-1.94178 0,-3.09123 2.32549,0 4.5239,-0.0224 6.72232,0.006 2.60704,0.0324 4.54134,1.24331 5.26557,3.5065 0.38619,1.20676 0.5307,2.51236 0.54316,3.77477 0.0556,5.65923 0.0191,11.31847 0.0307,16.97688 0,0.083 0.004,0.16693 0.007,0.24999 v 2.70587 h 4.9973 v 2.26735 h -4.9973 v 2.72663 c -0.0382,1.06142 -0.0349,2.1029 0,3.13608 v 0.4352" /><path
       inkscape:connector-curvature="0"
       id="path125"
       style="fill:#ffffff;fill-opacity:1;fill-rule:nonzero;stroke:none;stroke-width:0.08305309"
       d="m 472.34777,210.25504 c -1.88115,0.147 -2.84457,0.83966 -3.22163,2.50654 -0.24086,1.06308 -0.31477,2.1735 -0.31893,3.26232 -0.006,1.79395 -0.002,3.58707 -0.002,5.38101 v 5.20411 c 0.003,2.56136 0.009,5.12355 0.007,7.6849 0,0.0498 -0.007,0.1005 -0.007,0.1495 v 1.87118 h -0.14119 -5.93912 c 0,-0.80976 0,-1.46339 0,-2.11785 0,-3.73988 -0.009,-7.48059 0,-11.2213 v -5.40427 c -0.11212,-2.08629 -0.99415,-3.88937 -2.3612,-5.5222 -1.77485,-2.12034 -4.19834,-2.98243 -7.11682,-2.55554 -2.69507,0.39367 -4.16927,2.04726 -5.11607,4.20249 -0.83468,1.90108 -1.039,3.89519 -1.04232,5.9167 -0.005,3.47162 0.0432,6.94324 -0.0291,10.41403 -0.0249,1.2026 -0.1769,2.44591 -0.55977,3.59204 -0.38454,1.15112 -1.30145,2.30057 -2.63113,2.66185 -0.86956,0.23587 -1.9534,0.20764 -2.85453,0.24335 -0.54566,0.0208 -6.81285,0.12541 -6.81285,-0.24003 v -2.42099 c 1.00163,0 1.85541,0.0191 2.7067,-0.005 1.88365,-0.0531 2.91019,-0.65528 3.42761,-2.27897 0.34965,-1.0963 0.53984,-2.26818 0.56393,-3.40933 0.0722,-3.53142 0.0216,-7.0645 0.0357,-10.59675 0.01,-2.75985 0.87289,-5.28965 2.6469,-7.53706 4.64433,-5.88182 14.66884,-5.37437 18.00342,0.47506 0.18604,0.3264 0.53569,0.57639 0.8488,0.90279 0.17441,-0.25664 0.28238,-0.35049 0.30647,-0.46012 0.68768,-3.02313 1.84876,-3.92758 5.1767,-3.96412 2.01819,-0.0216 4.03804,-0.0166 6.05623,0.007 0.50662,0.006 1.01158,0.12957 1.51239,0.1985 v 2.92264 c -1.15111,0.0482 -2.14775,0.059 -3.13857,0.13704" /><path
       inkscape:connector-curvature="0"
       id="path127"
       style="fill:#ffffff;fill-opacity:1;fill-rule:nonzero;stroke:none;stroke-width:0.08305309"
       d="m 492.59279,210.23594 c -0.0789,0.002 -0.15863,0.002 -0.23753,0.006 -2.28978,0.10049 -3.3213,0.86209 -3.70999,2.90021 -0.19268,1.01076 -0.18686,2.06055 -0.1877,3.0929 -0.0141,9.19647 0.0349,18.39294 -0.0507,27.58857 -0.0149,1.67602 -0.38287,3.39189 -0.89614,5.00977 -0.57307,1.80806 -2.05639,2.78892 -4.24069,2.76068 -1.6486,-0.0216 -3.29721,-0.002 -4.94581,-0.0108 -0.77406,-0.005 -1.5506,0.0108 -2.32632,0.0108 v -0.23006 c 0,-0.55396 0,-1.10792 0,-1.66189 0,-0.13288 0,-0.2666 0,-0.39948 v -0.2475 c 0.78568,0 1.57801,0.0249 2.36203,-0.0141 0.70346,-0.0349 1.40609,-0.15282 2.00158,-0.51161 0.0125,-0.007 0.0249,-0.0149 0.0374,-0.0224 0.20515,-0.1279 0.39201,-0.27906 0.5548,-0.44932 0.65612,-0.68353 0.97089,-1.58797 1.14032,-2.46502 0.23005,-1.19098 0.25995,-2.42431 0.26245,-3.63855 0.0191,-9.43981 0.008,-18.87963 0.0133,-28.31861 0,-0.85213 0.064,-1.70425 0.064,-2.55638 -0.002,-2.3994 1.52818,-4.04634 4.79466,-4.08621 1.0963,-0.0133 2.1926,-0.0158 3.2889,-0.0141 v 0 h 4.64848 v 0.1877 c 0,0.96342 0,1.84212 0,3.06965 h -2.57298" /><path
       inkscape:connector-curvature="0"
       id="path141"
       style="fill:#3d84cd;fill-opacity:1;fill-rule:nonzero;stroke:none;stroke-width:0.08305309"
       d="m 698.40581,102.28436 c 0,0 10.08514,-32.369111 41.78152,-42.619523 -3.90101,1.262407 -8.4382,6.978121 -11.164,9.758738 -7.67161,7.82277 -14.17052,16.920405 -18.51419,27.000558 -6.14676,14.264377 -6.04876,27.837737 -4.34617,42.973337 2.21752,19.72012 4.15432,39.47264 5.80956,59.24841 0.77572,9.26789 1.84212,18.51668 2.22998,27.81281 0.35048,8.40664 0.4925,16.93453 -1.19597,25.22074 -1.66355,8.16245 -5.41173,15.3291 -11.23043,21.31557 -0.17525,0.18023 -0.35132,0.35879 -0.52905,0.53652 -0.0681,0.0673 -0.59549,0.67938 -0.6611,0.65778 1.5589,0.51659 12.01113,0.10133 11.59753,17.45278 0,0 -4.68253,-11.77859 -14.76767,-9.35095 -10.08514,2.42764 -21.0714,5.3943 -29.80609,2.60704 -8.7347,-2.78726 -17.46856,-16.69367 -17.46856,-16.69367 0.72007,0.35962 12.96625,10.19061 22.21089,10.90985 8.40497,0.35962 16.44866,-2.87779 20.65115,-15.82493 3.24156,-11.5095 3.24156,-18.5823 0.8405,-30.57101 -2.16105,-8.27209 -7.0836,-20.5 -13.20711,-28.77209 -5.04215,-6.47398 -19.21017,-21.45925 -35.29839,-28.8925 0.8405,0.12042 24.97323,5.63515 41.90195,28.41329 9.24463,15.8241 11.5261,26.37434 13.08667,46.27552 -0.1196,-1.79893 4.20249,-13.54762 0.24002,-30.45142 -3.48158,-13.30676 -5.76222,-18.70189 -19.08975,-31.64904 -12.00615,-9.95059 -27.61432,-18.22267 -39.7409,-21.22006 -10.80521,-2.75736 -13.3267,1.55891 -13.3267,1.55891 0,0 3.84204,-0.59965 3.48159,2.69756 -0.42025,1.67767 -3.12197,2.51734 -4.74233,1.19846 -1.50077,-1.19846 -1.80143,-5.21491 0.36045,-6.83361 1.86038,-1.01906 7.80366,-4.79549 23.05138,0.95926 12.84748,4.67589 16.38887,7.55285 16.38887,7.55285 0,0 -4.14186,-5.63432 -16.32824,-10.37001 -8.10432,-2.51734 -18.54991,-5.2747 -30.73629,-4.19584 0.60048,-0.29982 30.49627,-7.43325 56.79004,6.9532 -1.08052,-1.91852 -17.70941,-41.89945 -71.37748,-41.36043 2.16104,-1.25909 33.31757,-17.62304 75.63977,20.49999 -1.08052,-1.43848 -4.14269,-40.99999 -1.08052,-58.803251 17.46855,-69.053659 59.79074,-58.443626 88.96646,-58.983472 0,0 -65.91508,2.15855 -70.41739,74.988633" /><path
       inkscape:connector-curvature="0"
       id="path143"
       style="fill:#5dbb33;fill-opacity:1;fill-rule:nonzero;stroke:none;stroke-width:0.08305309"
       d="m 783.17062,193.51652 c 1.58133,8.32358 -4.96574,15.88224 -12.38736,18.30407 -6.39343,2.08629 -14.18464,-0.088 -20.35964,-2.09626 -6.02633,-1.96089 -12.69051,-4.99814 -16.71858,-10.09427 -5.40344,-6.83278 -10.08597,-14.62565 -10.92647,-26.37434 -0.35962,-8.63171 -0.35962,-31.40985 30.85671,-45.67588 0,0 -25.33285,5.51473 -30.85588,16.18373 1.39862,-2.70172 2.49159,-5.14929 4.61111,-7.39339 2.02732,-2.14609 4.38769,-3.95582 6.84606,-5.57951 7.47229,-4.9375 15.78591,-7.98638 24.54884,-9.67734 3.19671,-0.61626 6.46153,-1.1262 9.728,-0.99664 2.79059,0.11046 5.95242,0.71841 7.81779,2.99407 0.44849,0.54732 0.79814,1.16938 1.04647,1.83132 0.0988,0.2641 -0.31145,-0.0341 -0.38038,-0.0573 -0.49002,-0.16777 -0.87455,-0.49583 -1.4144,-0.56144 -1.23998,-0.15199 -2.33794,1.02488 -2.32964,2.23496 0.006,0.89282 0.55314,1.74411 1.32719,2.19094 1.54313,0.8895 3.41016,0.26826 4.31876,-1.17188 1.06391,-1.68515 0.64366,-3.73407 -0.53071,-5.24231 -2.26652,-2.90935 -6.08945,-3.98406 -9.61505,-4.28471 -4.67921,-0.39865 -9.31274,0.56975 -13.8491,1.60791 -4.49733,1.0282 -8.93569,2.22167 -13.20461,3.99319 -0.77655,0.32225 -1.54645,0.66027 -2.30639,1.01906 -0.77904,0.36627 -1.56472,0.75994 -2.26652,1.26075 0.31477,-0.22508 18.00923,-18.07236 48.5354,-6.20407 -2.19344,-0.85295 -4.23986,-2.21004 -6.45157,-3.08708 -5.32121,-2.11121 -10.96384,-3.47079 -16.67623,-3.90516 -16.86725,-1.28234 -33.59497,6.71983 -43.77479,20.08307 -7.5354,9.89245 -11.63407,22.76319 -11.18974,35.18461 0.53071,14.8665 6.17417,29.40827 15.9545,40.60715 8.17159,9.35759 18.70604,16.643 30.7205,20.07974 7.41083,2.11952 16.46279,3.44836 24.1236,1.99078 11.34589,-2.15772 36.73937,-19.78075 11.16566,-38.48264 -0.18022,0.17939 13.3267,16.72356 -6.66335,26.61436 -12.24701,6.65338 -28.81527,2.15772 -39.80153,-6.47399 1.08052,1.25908 47.42497,19.72095 40.10135,-18.82149" /><path
       inkscape:connector-curvature="0"
       id="path145"
       style="fill:#d61c7d;fill-opacity:1;fill-rule:nonzero;stroke:none;stroke-width:0.08305309"
       d="m 752.43434,91.494102 c 0,0 -28.81527,4.316269 -41.60129,48.194048 0,0 -14.0476,52.14987 24.31213,80.92195 0,0 38.54078,27.51382 79.422,7.37345 0,0 20.2608,-13.93714 14.1373,-24.90596 -1.77235,-3.17678 -5.44413,-6.00972 -9.22886,-6.0446 -3.99901,-0.0366 -7.51797,3.91512 -7.96978,7.75217 0.11462,-0.97089 2.73079,-1.62701 3.42844,-1.59379 4.3661,0.20597 4.38437,6.66667 0.57057,7.86513 -2.54225,0.79897 -5.48815,-0.87455 -6.88676,-2.9243 -1.64113,-2.40605 -1.57054,-6.1044 -0.75412,-8.80944 2.83211,-9.38749 13.81339,-11.06682 21.71007,-7.39173 2.32383,1.08136 4.48321,2.5705 6.2431,4.43919 10.83843,11.50369 4.42756,31.45304 -5.34197,41.38369 -8.28372,7.43243 -21.85127,19.30154 -59.91118,15.58492 -20.74084,-2.02567 -42.15442,-14.19876 -55.86399,-29.65245 -6.79541,-7.65915 -11.04855,-16.7842 -14.69043,-26.26803 -8.71975,-22.70754 -9.88415,-52.2977 1.51821,-74.27437 8.76459,-13.66722 24.25316,-30.090971 50.90656,-31.649878" /><path
       inkscape:connector-curvature="0"
       id="path147"
       style="fill:#f06d24;fill-opacity:1;fill-rule:nonzero;stroke:none;stroke-width:0.08305309"
       d="m 634.29215,91.134482 c 0,0 44.90348,1.678503 56.42959,47.954028 7.48391,30.04611 -1.30393,63.33628 -21.96671,86.29631 -16.26013,18.06903 -39.28245,28.23473 -63.59956,28.28788 -13.29763,0.0291 -26.68081,-2.84789 -38.59809,-8.79615 -14.58994,-7.28376 -25.64431,-19.03328 -32.73704,-33.61076 -2.64441,-5.43582 -5.09946,-11.00121 -6.72813,-16.83403 -0.89863,-3.21747 -1.96504,-6.54292 -1.85873,-9.92235 0.19352,-6.13347 8.79034,-7.71148 10.53446,-1.57219 0.26244,0.92521 0.31061,1.9451 -0.0731,2.82712 -1.1478,2.63362 -5.17089,1.81139 -7.20818,0.94847 -0.45015,-0.0897 10.35589,44.32709 57.18039,54.03849 0,0 -35.83907,-11.14988 -40.16115,-46.75473 0.28653,2.36036 2.89191,5.53465 4.08953,7.47976 3.6261,5.88597 7.90167,11.40568 12.7935,16.29833 11.11001,11.11417 25.95492,18.25923 41.80311,18.56901 15.50933,0.30232 31.18394,-5.74063 43.69091,-14.64558 23.90766,-17.02173 36.15301,-46.18914 29.09183,-74.99694 -4.5023,-17.26341 -9.00461,-39.20189 -42.68264,-55.566668" /><path
       inkscape:connector-curvature="0"
       id="path149"
       style="fill:#6844a2;fill-opacity:1;fill-rule:nonzero;stroke:none;stroke-width:0.08305309"
       d="m 647.13714,210.53991 c -9.48051,-0.30231 -17.09482,3.21498 -24.73072,5.4815 -3.93339,1.16524 -8.02542,2.20755 -12.1598,2.53894 -4.04136,0.3239 -8.11179,-0.54649 -11.74952,-2.29476 -2.87447,-1.3737 -5.45326,-3.3379 -7.53541,-5.74727 -1.20343,-1.38865 -2.22582,-2.92015 -3.04721,-4.56792 0.18022,0.35962 1.89444,9.37337 14.14145,13.76106 9.36423,3.35867 18.52748,-1.05809 27.06451,-4.03555 9.19148,-3.21581 18.24676,-5.12853 27.47479,-3.10037 0.73502,0.16528 1.47004,0.35215 2.19011,0.56808 -4.14186,-1.24413 -5.88514,-2.42349 -11.6482,-2.60371 z m 33.9222,63.75985 c -10.3808,3.79055 -20.58138,-3.01399 -27.49638,-10.26453 -0.31726,-0.33138 8.28371,6.65339 15.39389,2.79059 -0.0864,0 -7.9241,1.07886 -10.44559,-7.37263 0,0 14.40805,7.27878 17.11641,-3.15103 0.72007,-5.12105 -1.71421,-12.94715 -4.68253,-17.34979 -2.97496,-4.40181 -8.01795,-11.14905 -14.32084,-13.03352 -4.86276,-1.17271 -7.56448,-2.15772 -17.73599,0.44599 -9.09847,2.42432 -16.48189,4.85529 -26.38763,5.93415 -15.16383,1.65442 -33.5767,-5.69661 -39.69273,-20.52906 -0.23006,-0.55397 -0.43935,-1.12953 -0.62622,-1.70508 -0.0723,-0.21511 -0.5332,-2.48163 -0.56227,-2.48827 0.36045,0.17275 9.18484,17.79578 25.03303,19.9535 -0.45347,-0.2666 -10.44558,-5.30128 -14.94789,-11.50867 -3.32794,-5.12188 -5.48898,-10.33678 -4.32209,-17.17039 1.08053,-5.84777 2.79474,-8.45148 6.12351,-11.41565 3.32794,-2.96998 7.74387,-5.58117 15.57411,-4.40929 4.68254,1.17271 9.27869,3.50318 10.44559,9.35095 0.54732,3.69005 -2.33379,7.91247 -5.48898,7.81945 -2.34126,-0.2666 -3.96246,-1.70508 -4.32208,-3.95665 -0.0872,-1.70425 1.03733,-3.58872 3.86778,-3.58872 -1.10876,0 -2.49242,-1.12205 -3.78888,-1.16524 -5.48898,-0.19434 -8.70978,6.68162 -7.32611,11.36498 2.80968,9.5453 11.36,13.17721 20.71095,12.58753 4.99232,-0.30896 9.00461,-1.92766 13.00943,-3.36614 5.05046,-1.81969 10.30191,-3.0929 15.63225,-3.76895 4.69001,-0.59715 10.20806,-1.23002 14.89807,-0.28072 4.00482,0.81226 13.29098,2.6685 22.65522,13.58001 6.48395,7.07114 10.20805,17.86057 11.64902,23.37778 2.70836,10.35838 1.58466,25.10363 -9.96305,29.3194" /><text
       xml:space="preserve"
       style="font-size:204.62667847px;line-height:1.25;font-family:sans-serif;letter-spacing:4.7464838px;word-spacing:0px;fill:#ffffff;stroke-width:5.11566687"
       x="77.482758"
       y="-134.45807"
       id="text153"
       transform="scale(1,-1)"><tspan
         sodipodi:role="line"
         id="tspan151"
         x="77.482758"
         y="-134.45807"
         style="font-style:normal;font-variant:normal;font-weight:normal;font-stretch:normal;font-size:122.77600098px;font-family:'Visit Indonesia 2011 #2';-inkscape-font-specification:'Visit Indonesia 2011 #2';letter-spacing:3.45708466px;fill:#ffffff;stroke-width:5.11566687">jogjakarta</tspan></text>
</g></svg>