<?xml version="1.0" encoding="UTF-8"?>
<!DOCTYPE svg PUBLIC "-//W3C//DTD SVG 1.1//EN" "http://www.w3.org/Graphics/SVG/1.1/DTD/svg11.dtd">
<!-- Creator: CorelDRAW 2019 (64-Bit) -->
<svg xmlns="http://www.w3.org/2000/svg" xml:space="preserve" width="9.06458in" height="3.33334in" version="1.1" style="shape-rendering:geometricPrecision; text-rendering:geometricPrecision; image-rendering:optimizeQuality; fill-rule:evenodd; clip-rule:evenodd"
viewBox="0 0 8416.37 3094.97"
 xmlns:xlink="http://www.w3.org/1999/xlink"
 xmlns:xodm="http://www.corel.com/coreldraw/odm/2003">
 <defs>
  <style type="text/css">
   <![CDATA[
    .fil1 {fill:#2ECC71}
    .fil0 {fill:#3498DB}
    .fil4 {fill:#9B59B6}
    .fil3 {fill:#E74C3C}
    .fil2 {fill:#F1C40F}
    .fil5 {fill:#FEFEFE;fill-rule:nonzero}
   ]]>
  </style>
 </defs>
 <g id="Layer_x0020_1">
  <metadata id="CorelCorpID_0Corel-Layer"/>
  <path class="fil0" d="M7586.12 3072.77c0,0 -761.98,13.09 -826.78,-882.12 95.97,344.63 390.89,467.82 394.63,469.31l92.44 37.29 -75.54 -64.94c-207.53,-178.28 -323.41,-385.27 -326.69,-599.33 -4.28,-209.98 -56.44,-306.65 -26.46,-400.17 19.02,-59.67 19.51,-116.04 27.61,-197.74 1.6,-16.23 3.09,-31.79 4.46,-47.56l1.7 -18.98 -150.66 -141.7 -158.33 161.3 -3.84 9.81c-240.73,592.8 -861.5,547.96 -861.5,547.96 0,0 315.08,194.96 827.52,-180.69 54.37,117.25 21.16,235.08 23.11,395.2 0,0 -47.57,1103.26 1058.33,912.34z"/>
  <path class="fil1" d="M7606.43 707.75c-81.42,0 -194.04,31.93 -194.04,31.93 -546.08,135.17 -545.99,712.65 -545.99,712.65 0,0 -18.34,462.94 457.49,613.31 0,0 270.26,69.83 453.66,-69.06 -325.27,142.26 -569.55,-64.18 -569.55,-64.18 240.21,104.41 389.45,92.86 443.61,68.59 54.08,-24 59.68,-74.73 36.71,-98.95 -22.91,-24.21 -70.72,-4.23 -58.79,26.03 11.81,30.22 45.78,13.54 45.78,13.54 0,0 -21.53,55.66 -124.85,48.04 -424.51,-31.31 -514,-278.44 -514,-278.44 114.75,166.51 365.86,199.26 365.86,199.26 -227.94,-78.48 -438.48,-337.79 -336.29,-659.69 111.39,-350.91 479.13,-329.87 479.13,-329.87 225.51,8.09 193.46,231.68 193.46,231.68 0,0 47.39,-79.54 5.57,-178.79 -41.06,-97.45 -183.65,-184.94 -472.11,-55.62 159.65,-134.88 382.19,-115.75 464,-75.35 248.13,122.55 78.56,320.23 78.56,320.23 0,0 89,-15.81 120.7,-148.56 31.39,-131.47 -68,-306.76 -328.92,-306.76z"/>
  <path class="fil0" d="M6139.68 1358.48c298.24,-67.37 480.16,-319.71 480.16,-319.71 164.05,-222 160.92,-564.37 160.92,-564.37 0,0 145.45,514.72 -287.13,800.14 0,0 -128.84,87.59 -303.78,157.97 -182.29,73.33 -246.63,5.64 -246.63,5.64 0,0 35.09,12.81 43.65,-18.03 8.54,-30.94 -40.45,-45.7 -60.48,-19.55 -20,26.15 -15.28,66.61 48.43,87.51 55.62,18.24 124.43,3.46 177.26,-8.27 52.84,-11.81 202.27,-77.24 246.94,-107.2 -162.06,174.86 -476.77,183.22 -555.72,171.95 274.8,41.15 445.44,32.38 684.25,-92.23 368.26,-192.17 398.66,-463.21 398.66,-463.21 83.54,-635.33 -116.27,-790.75 -148.35,-789.84 167.83,-4.78 138.39,-199.29 138.39,-199.29l-29.69 44.63c-29.87,45.02 -63.68,64.19 -112.81,64.19 -31,0 -65.58,-7.6 -102.17,-15.71 -21.91,-4.79 -44.63,-9.79 -68.17,-13.59l-11.95 -2.1c-43.6,-7.66 -83.99,-14.74 -127.58,-11.23 -39.28,3.52 -78.5,18.96 -116.46,45.9 -31.21,21.87 -82.73,82.89 -84.88,85.43l-63.42 75.26c306.77,-245.31 435.97,-58.38 435.97,-58.38 215.36,271.09 64.48,876.54 -495.4,1144.08z"/>
  <path class="fil2" d="M6684.54 1326.61c-62.02,-416.7 -377.53,-886.18 -1053.47,-886.18 -431.01,0 -653.48,290.01 -733.97,421.25 -85.73,139.76 -161.08,332.54 -139.95,402.2 9.58,31.61 29.76,44.02 47.04,46.94 4.79,1.64 14.79,2.59 20.69,2.06 29.32,-2.46 56.05,-33.32 53.88,-59.19 -2.15,-25.86 -27.79,-44.74 -57.06,-42.29 -14.11,1.17 -32.3,3.91 -35.19,15.98 129.68,-543.6 678.52,-640.73 678.52,-640.73 -476.52,172.78 -481,545.64 -481,545.64 344.32,-720.11 990.3,-451.91 1159.94,-351.77 0,0 359.2,181.86 383.59,671.81 9.99,200.45 -44.35,698.07 -517.57,878.26 0,0 807.13,-43.68 674.55,-1003.99z"/>
  <path class="fil3" d="M7769.02 440.43c-675.94,0 -991.47,469.48 -1053.48,886.18 -132.58,960.31 674.55,1003.99 674.55,1003.99 -473.22,-180.19 -527.55,-677.81 -517.57,-878.26 24.41,-489.96 383.59,-671.81 383.59,-671.81 0,0 200.69,-138.06 529.23,-130.87 332.9,7.29 461.2,226.9 461.2,226.9 118.72,183.92 -64.17,220.8 -64.17,220.8 -100.99,20.43 -118.15,-113.63 -118.15,-113.63 0,24.19 19.61,43.79 43.79,43.79 24.19,0 43.79,-19.6 43.79,-43.79 0,-24.2 -21.87,-48.54 -48.51,-48.54 0,0 -69.76,-2.85 -76.74,82.51 -11.75,143.7 147.82,202.46 271.57,133.55 110.04,-61.28 131.02,-155.82 112.01,-286.76 0,0 -48.06,-424.05 -641.11,-424.05z"/>
  <path class="fil4" d="M6297.54 913.81l0 0c-6.11,2.79 -15.35,6.13 -27.24,10.24 -6.06,1.7 -12.75,3.58 -20.05,5.63 -7.4,1.54 -15.35,3.84 -24.05,5.11 -17.29,3.22 -37.11,5.15 -58.8,5.82 -21.68,0.49 -45.23,-0.64 -69.91,-3.51 -24.7,-2.87 -50.46,-7.8 -76.77,-13.88 -26.34,-6.01 -53.13,-13.72 -80.09,-21.92 -26.77,-8.36 -53.97,-16.84 -81.15,-25.33 -26.99,-8.28 -54.27,-16.26 -80.7,-21.23 -26.89,-5.11 -53.3,-7.4 -78.87,-5.82 -25.42,1.69 -49.93,5.86 -71.86,14.1 -21.97,7.94 -41.96,18.15 -58.78,30.16 -34.24,23.4 -57.18,50.79 -71.93,70.47 -7.3,9.98 -12.59,18.21 -16.09,23.91 -3.46,5.73 -5.06,8.93 -5.06,8.93 0,0 1.02,-3.43 3.43,-9.72 2.4,-6.29 6.29,-15.41 12.28,-26.55 5.87,-11.19 14.15,-24.21 24.93,-38.33 10.82,-14.08 24.67,-28.85 41.76,-42.93 17.16,-13.94 37.78,-26.93 61.51,-36.66 23.67,-9.79 50.33,-16.26 78.19,-18.22 27.77,-1.93 56.92,-0.35 85.06,5.48 28.7,5.66 56.16,14.04 83.6,22.7 27.34,8.64 54.16,18.29 80.69,27.06 26.52,8.82 52.67,16.94 78.14,24.12 50.92,14.16 99.59,22.88 141.75,24.39 21.06,0.94 40.48,0.55 57.57,-1.32 8.6,-0.54 16.5,-2.01 23.95,-2.86 7.34,-1.37 14.08,-2.61 20.17,-3.73 12.08,-2.84 21.63,-5.07 27.97,-7.17 6.42,-1.9 9.84,-2.9 9.84,-2.9 0,0 -3.29,1.38 -9.47,3.97zm176.32 -719.3c-178.2,10.66 -254.1,130.64 -254.1,130.64 106.88,-84.05 177.11,-29.57 177.11,-29.57 -93.17,-7.68 -120.69,79.24 -120.69,79.24 0,0 78.04,-34.71 139.24,-21.83 0,0 75.83,9.63 65.47,104.66 0,0 -10.73,105.77 -86.79,202.1 -41.33,52.32 -96.22,107.03 -181.57,121.41 -134.7,22.68 -381.04,-132.45 -632.22,-73.42 0,0 -91.04,18.93 -167.58,67.42 -66.22,41.98 -115.88,109.89 -142.64,210.59 0,0 33.41,-101.42 155.03,-179.33 40.53,-25.97 90.87,-49.33 153.05,-65.43 0,0 -192.57,73.03 -235.5,225.44 -21.42,76.02 -14.96,189.74 82.71,263.63 39.62,30.24 96.24,36.57 123.19,36.57 32.95,0 125.84,-11.81 153.76,-80.8 25.61,-63.3 -15.64,-105.43 -34.53,-113.53 0,0 -43.74,-19.99 -68.77,20.88 -7.31,11.93 -6.58,28.83 -0.76,40.21 5.14,10.1 13.57,16.87 24.72,20.43 7.94,2.53 18.14,2.03 25.17,-1.68 0,0 -28.55,20.45 -64.62,14.68 -36.08,-5.79 -79.44,-46.88 -72.99,-117.71 5.91,-64.95 67.63,-114.32 67.63,-114.32 0,0 102.51,-93.39 296.61,-16.29 66.95,26.6 169.24,60.15 319.5,60.83 118.09,0.54 209,-52.76 209,-52.76 85.85,-54.92 136.12,-128.41 136.12,-128.41 79.72,-118.52 116.88,-261.77 116.88,-261.77 51.62,-200.47 -49.69,-349.81 -182.42,-341.87l0 0z"/>
  <path class="fil5" d="M1477.99 809.7c-42.77,103.67 -75.37,181.64 -97.79,233.8l-12.13 4.17c-3.13,-3.78 -9.39,-14.6 -18.78,-32.47 -65.46,-144.87 -106.53,-233.01 -123.35,-264.31 -5.87,-7.43 -13.04,-12 -21.38,-13.82l-10.43 0.78 -32.08 0 -1.43 -1.56 0 -28.56 1.43 -1.56 92.84 0c22.69,0 41.08,20.21 55.03,60.76l74.59 167.3c5.48,-8.35 29.47,-64.94 71.72,-169.64 -2.48,-4.83 -4.69,-8.86 -6.52,-12.13 -5.74,-7.43 -13.82,-11.87 -23.99,-13.43l-6.91 -0.39 -32.08 0 -1.18 -0.78 0 -28.56 0.39 -1.56 92.84 0c22.69,0 41.08,20.21 55.03,60.76l74.46 167.3c2.35,-2.08 26.86,-60.37 73.8,-174.99 3.52,-8.61 5.35,-15.13 5.35,-19.43l0 -1.96c0,-8.22 -5.22,-13.69 -15.65,-16.43l-22.95 0 -1.96 -1.56 0 -12.13 1.96 -1.56 93.62 0 0.65 0.78 0.78 0c-65.2,161.69 -111.75,273.83 -139.78,336.55l-7.69 4.17c-5.99,-0.78 -14.73,-12 -25.95,-33.64 -40.16,-91.15 -71.07,-159.73 -92.45,-205.89zm571.17 -158.95l0.78 0.39 0.39 14.48c0,28.56 -10.96,48.12 -32.86,58.55l-6.13 2.22c12,6.39 26.73,18.26 44.33,35.6 28.82,34.81 43.16,73.28 43.16,115.4 0,44.98 -16.56,85.27 -49.68,120.61 -34.81,33.9 -75.11,50.85 -120.75,50.85 -52.68,0 -97.66,-22.43 -134.82,-67.28 -23.21,-32.34 -34.69,-66.37 -34.69,-102.36l0 -4.56c0,-50.46 20.73,-94.15 62.2,-131.05 32.6,-25.69 68.2,-38.59 106.53,-38.59l18.78 0.78c28.82,-6.13 51.25,-12.78 67.28,-19.82 11.47,-5.61 20.08,-11.47 25.95,-17.6 5.08,-5.61 8.08,-11.47 9.13,-17.6l0.39 0zm-207.85 226.89c0,45.9 14.48,83.19 43.16,112.01 14.87,12.52 30.51,18.65 47.07,18.65l0.39 0c29.73,0 54.76,-19.82 74.85,-59.59 9.13,-23.34 13.69,-45.38 13.69,-65.98l0 -10.43c0,-35.86 -11.21,-68.32 -33.51,-97.4 -17.35,-18.77 -35.73,-28.17 -55.03,-28.17l-0.39 0c-30.38,0 -55.03,18.78 -74.19,56.46 -10.69,22.95 -16.04,47.72 -16.04,74.45zm535.31 -176.03l7.17 0c34.69,0 64.68,12.78 89.84,38.21 24.65,27.51 37.03,59.2 37.03,95.06l0 125.7c0,35.73 7.04,56.85 20.99,63.5 0,1.43 5.08,3.13 15.26,4.95l39.77 0 1.17 1.04 0 18.39 -1.17 1.17 -94.41 0c-25.95,0 -42.9,-19.04 -50.72,-56.98 -1.04,-4.3 -1.56,-8.87 -1.56,-13.69l0 -135.22c0,-44.6 -15.91,-73.54 -47.72,-86.72 -13.04,-4.56 -26.6,-6.91 -40.94,-6.91 -26.21,0.78 -52.03,13.82 -77.46,39.38 -9.52,11.47 -14.21,22.82 -14.21,34.3l0 225.84 -1.17 1.17 -68.72 0 -1.56 -1.17 0 -265.09c0,-22.43 -9.13,-37.55 -27.51,-45.51l-13.3 -1.96 -32.08 0 -1.17 -1.05 0 -29.86 1.17 -1.17 86.72 0c21.9,0 38.86,12.13 50.85,36.38l3.39 11.73c37.42,-33.51 77.58,-50.72 120.35,-51.51zm504.28 43.16c-35.34,-14.47 -63.37,-21.78 -83.97,-21.78 -74.2,0 -111.22,49.16 -111.22,147.48 0,43.81 8.21,78.5 24.51,104.32 17.73,28.42 43.68,42.77 77.45,42.77 38.47,0 69.63,-14.48 93.23,-43.16l0 -229.63zm79.8 223.1c6.13,29.47 21.25,50.2 45.12,61.81 5.61,1.83 10.04,2.74 13.43,2.74l11.74 0 1.56 1.17 0 17.21 -1.56 1.04 -90.49 0c-27.25,0 -44.33,-11.73 -51.11,-35.47l-0.78 -4.96 0 -1.56 -3.13 -3 -4.57 0c-25.95,26.21 -65.85,39.25 -119.57,39.25 -51.11,0 -91.15,-17.08 -119.96,-51.51 -26.47,-31.82 -39.64,-73.28 -39.64,-124.14 0,-51.51 13.56,-92.97 40.81,-124.53 30.12,-34.42 72.63,-51.63 127.66,-51.63 38.33,0 75.36,7.3 110.7,21.78l0 -64.94c0,-24.12 -3.65,-41.46 -11.08,-51.9 -9.13,-13.04 -26.08,-19.56 -50.72,-19.56l-17.99 0 0 -14.48 79.8 0c31.56,0 52.68,5.35 63.5,16.04 10.82,11.47 16.3,34.81 16.3,69.89l0 316.73zm230.45 -274.74l5.74 0c56.46,0 101.58,21.51 135.22,64.67 13.43,21.38 20.21,48.51 20.21,81.37 0,52.94 -19.56,93.1 -58.81,120.62 -23.21,14.86 -52.16,22.17 -86.71,22.17 -20.6,0 -41.46,-2.61 -62.33,-7.95l0 0.39c11.21,21.38 32.21,37.68 63.11,48.9 9.91,3.26 18,4.96 24.38,4.96l69.5 0 1.17 1.17 0 18.65 -1.17 1.17 -104.58 0c-27.25,0 -58.55,-10.04 -93.62,-30.25 -14.08,-10.17 -25.04,-21.51 -32.86,-33.9 -20.6,-37.16 -30.9,-84.11 -30.9,-140.56l0 -12.65c0,-34.42 10.3,-61.93 30.9,-82.54 7.56,-8.87 15.39,-16.04 23.34,-21.38 33.12,-23.21 65.59,-34.81 97.4,-34.81zm-73.02 144.48c0,42.77 14.6,76.02 43.94,99.75 12.52,7.3 23.86,10.96 34.03,10.96 28.03,0 50.59,-17.74 67.94,-53.46 7.69,-18.52 11.47,-38.08 11.47,-58.42 0,-38.99 -13.04,-70.67 -39.38,-95.06 -12.91,-10.3 -26.08,-15.39 -39.25,-15.39 -26.99,0 -49.29,17.34 -66.89,52.02 -7.95,18.78 -11.87,38.73 -11.87,59.59zm491.37 -124.14l5.34 -0.78 0.78 0c4.57,0 8.48,5.61 11.87,16.82l-0.39 2.61c-1.31,1.05 -6.13,3.26 -14.6,6.52 -5.35,2.35 -10.95,4.69 -16.69,7.3 -6.13,2.74 -16.3,9 -30.64,18.65 -9.39,5.08 -18.26,12.52 -26.73,22.17 -8.09,11.74 -12.26,22.3 -12.26,31.69l0 230.02 -0.78 0.78 -70.67 0 -0.65 -0.78 0 -256.35c0,-26.99 -8.87,-44.07 -26.47,-51.11 -5.35,-1.31 -10.43,-1.96 -15.26,-1.96l-32.86 0 -0.78 -0.78 0 -30.51 0.78 -0.39 86.32 0c19.95,0 35.86,8.86 47.85,26.73 5.35,9.65 7.95,18.51 7.95,26.73l0 1.17c19.43,-15.78 39.9,-28.95 61.55,-39.38 10.17,-5.61 18.91,-8.6 26.34,-9.13zm165.12 291.43l-0.39 0c-1.04,30.77 -17.47,45.77 -49.29,44.72l-80.97 -0.39 -0.78 -1.17 0 -18.39 1.17 -1.04 33.9 0c8.74,-1.56 13.04,-3.13 13.04,-4.56 12.26,-6.65 18.51,-27.77 18.78,-63.5l1.04 -125.7 0.78 -97.79 -34.03 0 0 -27.12 34.03 0 0 -19.82c0,-76.15 48.24,-117.75 144.87,-124.92l-4.96 43.16c-51.51,-3.78 -77.19,23.47 -77.19,81.76l0 19.82 61.02 0 0 27.12 -61.02 0 0 267.83zm313.65 44.72l-6.91 0c-34.42,0 -64.15,-12.65 -89.45,-37.82 -24.39,-27.25 -36.64,-58.81 -36.64,-94.79l0 -124.92c0,-35.34 -7.04,-56.2 -20.99,-62.59 0,-1.83 -5.08,-3.65 -15.25,-5.35l-39.38 0 -1.17 -1.17 0 -17.99 1.17 -1.17 93.62 0c25.95,0 42.77,18.91 50.33,56.59 1.3,4.3 1.96,8.86 1.96,13.82l0 134.05c0,44.33 15.65,73.02 46.94,86.32 13.3,4.56 26.86,6.91 40.55,6.91 20.34,0 43.16,-12.65 68.33,-37.81 9.52,-11.47 14.21,-22.95 14.21,-34.42l0 -224.28 1.17 -1.17 68.32 0 1.18 1.17 0 263.26c0,22.43 9.12,37.56 27.51,45.38l13.3 1.56 31.69 0 1.17 1.17 0 29.73 -1.17 1.17 -85.93 0c-21.64,0 -38.47,-12 -50.33,-35.86l-3.52 -11.87c-37.16,33.38 -74.06,50.07 -110.7,50.07zm325.38 -387.4c0,-12.78 -2.74,-24.38 -8.35,-35.07 -7.44,-8.21 -20.73,-10.95 -40.16,-8.48l-13.69 0 0 -26.34 62.2 0c18.91,-1.05 34.42,3.78 46.68,14.47 10.43,8.22 15.65,26.6 15.65,55.42l0 297.95c0,35.73 6.26,56.85 18.65,63.5 0,1.44 4.57,3.13 13.43,4.96l35.21 0 1.04 1.04 0 18.39 -1.04 1.17 -83.32 0c-22.95,0 -37.82,-19.04 -44.72,-56.98 -1.05,-4.3 -1.56,-8.87 -1.56,-13.69l0 -316.34z"/>
  <g id="_2192396034400">
   <path class="fil5" d="M126.23 1521.75c0,-45.26 -5.38,-77.8 -15.9,-97.37 -14.19,-23.98 -40.12,-35.72 -77.31,-35.72l-26.67 0 0 -26.67 119.87 0c48.2,0 79.76,9.79 94.68,29.36 16.64,21.04 24.95,64.58 24.95,130.4l0 432.29c0,102.75 -16.64,175.41 -50.15,217.98 -36.21,45.26 -101.53,68.01 -195.71,68.01l0 -26.42c84.16,0 126.23,-86.61 126.23,-259.57l0 -432.29zm700.18 -272.29l1.47 0.73 0.73 27.15c0,53.58 -20.55,90.28 -61.65,109.85l-11.5 4.16c22.51,11.99 50.15,34.25 83.18,66.79 54.07,65.32 80.98,137.49 80.98,216.51 0,84.4 -31.07,160 -93.21,226.3 -65.32,63.61 -140.92,95.41 -226.54,95.41 -98.84,0 -183.24,-42.08 -252.96,-126.24 -43.55,-60.67 -65.08,-124.52 -65.08,-192.05l0 -8.56c0,-94.68 38.9,-176.64 116.7,-245.87 61.16,-48.19 127.95,-72.41 199.88,-72.41l35.23 1.47c54.07,-11.5 96.15,-23.98 126.24,-37.19 21.53,-10.52 37.67,-21.53 48.68,-33.03 9.54,-10.52 15.17,-21.53 17.13,-33.03l0.73 0zm-389.97 425.68c0,86.12 27.15,156.08 80.98,210.15 27.89,23.48 57.25,34.98 88.32,34.98l0.73 0c55.78,0 102.75,-37.19 140.43,-111.8 17.13,-43.79 25.69,-85.14 25.69,-123.79l0 -19.57c0,-67.28 -21.04,-128.19 -62.87,-182.75 -32.54,-35.23 -67.03,-52.84 -103.24,-52.84l-0.73 0c-57,0 -103.24,35.23 -139.2,105.93 -20.06,43.06 -30.09,89.54 -30.09,139.69zm1314.48 -153.39c0,-45.26 -5.38,-77.8 -15.9,-97.37 -14.19,-23.98 -40.12,-35.72 -77.31,-35.72l-26.67 0 0 -26.67 119.87 0c48.2,0 79.76,9.79 94.68,29.36 16.64,21.04 24.95,64.58 24.95,130.4l0 432.29c0,102.75 -16.64,175.41 -50.15,217.98 -36.21,45.26 -101.53,68.01 -195.71,68.01l0 -26.42c84.16,0 126.23,-86.61 126.23,-259.57l0 -432.29zm295.29 -179.08l167.58 0c23.97,0 51.86,6.36 83.91,19.33 46.97,21.04 80,53.82 99.57,98.35 5.38,12.72 9.3,25.44 12.23,37.92 4.4,20.55 6.61,36.45 6.61,47.95l0.49 18.6c78.04,-16.15 123.79,-26.18 137.73,-30.09 29.12,-10.52 48.44,-25.45 57.98,-45.02 4.89,-10.03 7.34,-19.08 7.34,-27.4l0 -1.96 0.73 0c5.63,13.7 8.56,27.4 8.56,40.86 0,34.74 -18.84,65.07 -56.76,91.01 -11.5,7.59 -23.98,13.7 -37.92,18.6 -11.01,3.18 -26.18,6.36 -45.26,9.3 -25.69,4.65 -49.91,9.05 -72.41,12.97l0 226.3c0,21.04 3.67,41.84 10.77,62.39 3.92,9.05 9.79,17.86 17.37,25.93 10.52,8.56 21.28,12.72 32.29,12.72l32.78 0 0.73 0.73 0 37.43 -0.73 0.73 -113.27 0c-43.79,0 -74.37,-23.73 -91.74,-70.95 -3.18,-7.34 -6.61,-18.84 -10.03,-34.5l-1.22 -8.56c-72.66,73.15 -147.03,109.6 -223.12,109.6 -27.65,0 -55.53,-5.14 -83.67,-15.66 -9.54,-4.89 -19.33,-10.77 -29.36,-18.1 -36.94,-29.6 -55.29,-64.83 -55.29,-105.93l0 -2.94c0,-30.09 10.03,-61.65 30.09,-94.68 16.64,-25.2 40.61,-48.44 71.68,-69.48 19.57,-13.46 40.86,-25.44 63.85,-36.45 27.15,-13.46 60.42,-26.18 99.57,-38.16 30.58,-8.56 53.09,-12.72 67.28,-12.72 16.39,-2.45 34.99,-5.63 56.02,-9.3l0 -50.88c0,-22.51 -5.38,-48.44 -15.9,-77.55 -3.67,-8.07 -9.05,-17.13 -15.66,-27.15 -8.56,-11.99 -20.55,-20.31 -35.96,-25.2 -2.69,-1.22 -15.17,-2.2 -37.19,-2.69l-139.69 -4.4 -0.73 -0.73 0 -59.45 0.73 -0.73zm-0.73 475.35l0 0.49c0,23.98 7.59,47.22 23,69.72 15.17,18.59 35.72,27.89 61.65,27.89 20.55,0 41.83,-6.36 64.34,-18.59l96.15 -71.68 0 -173.46c-40.12,7.59 -75.84,16.64 -106.91,27.16 -39.15,12.97 -66.05,25.44 -80.98,37.19 -15.66,12.48 -28.38,25.69 -37.92,39.63 -12.97,20.06 -19.33,40.61 -19.33,61.65zm531.13 -696.02l142.63 0c54.8,0 86.12,38.17 93.95,114.74l0 248.56c0,19.57 0.24,64.09 0.73,133.33 66.3,-31.07 109.11,-46.73 128.2,-47.21l23 -5.14 7.1 0c56.51,0 90.27,-20.8 101.77,-62.38 9.54,-46.73 18.84,-82.45 27.89,-106.67 14.93,-36.94 51.13,-56.51 109.11,-58.96 -27.4,20.55 -46.24,47.22 -56.75,79.76 -3.67,72.66 -14.44,125.75 -32.3,159.75l-29.36 30.82c57,32.54 85.38,75.11 85.38,127.46l0 134.8c0,57.49 10.52,89.05 31.56,94.68l20.8 4.4 50.15 0 4.16 4.16 0 15.9 -4.16 4.16 -127.7 0c-49.17,-5.63 -73.64,-34.99 -73.64,-88.07l0 -160.49c0,-49.42 -26.18,-81.71 -78.29,-97.62l-43.06 -4.16c-76.82,5.63 -124.04,28.62 -141.89,68.74l-2.69 10.77 0 149.72c0,64.59 -25.45,104.96 -76.08,121.1l-27.16 2.2 -137.73 0 0 -4.4 0 -44.28 0 -4.4 62.38 0c34,0 53.82,-23.49 59.45,-70.21l0 -625.8c0,-49.66 -24.22,-74.37 -72.9,-74.37l-44.53 0 -4.4 -4.4 0 -42.32 4.4 -4.16zm861.64 220.67l167.58 0c23.97,0 51.86,6.36 83.91,19.33 46.97,21.04 80,53.82 99.57,98.35 5.38,12.72 9.3,25.44 12.23,37.92 4.4,20.55 6.61,36.45 6.61,47.95l0.49 18.6c78.04,-16.15 123.79,-26.18 137.73,-30.09 29.12,-10.52 48.44,-25.45 57.98,-45.02 4.89,-10.03 7.34,-19.08 7.34,-27.4l0 -1.96 0.73 0c5.63,13.7 8.56,27.4 8.56,40.86 0,34.74 -18.84,65.07 -56.76,91.01 -11.5,7.59 -23.98,13.7 -37.92,18.6 -11.01,3.18 -26.18,6.36 -45.26,9.3 -25.69,4.65 -49.91,9.05 -72.41,12.97l0 226.3c0,21.04 3.67,41.84 10.77,62.39 3.92,9.05 9.79,17.86 17.37,25.93 10.52,8.56 21.28,12.72 32.29,12.72l32.78 0 0.73 0.73 0 37.43 -0.73 0.73 -113.27 0c-43.79,0 -74.37,-23.73 -91.74,-70.95 -3.18,-7.34 -6.61,-18.84 -10.03,-34.5l-1.22 -8.56c-72.66,73.15 -147.03,109.6 -223.12,109.6 -27.65,0 -55.53,-5.14 -83.67,-15.66 -9.54,-4.89 -19.33,-10.77 -29.36,-18.1 -36.94,-29.6 -55.29,-64.83 -55.29,-105.93l0 -2.94c0,-30.09 10.03,-61.65 30.09,-94.68 16.64,-25.2 40.61,-48.44 71.68,-69.48 19.57,-13.46 40.86,-25.44 63.85,-36.45 27.15,-13.46 60.42,-26.18 99.57,-38.16 30.58,-8.56 53.09,-12.72 67.28,-12.72 16.39,-2.45 34.99,-5.63 56.02,-9.3l0 -50.88c0,-22.51 -5.38,-48.44 -15.9,-77.55 -3.67,-8.07 -9.05,-17.13 -15.66,-27.15 -8.56,-11.99 -20.55,-20.31 -35.96,-25.2 -2.69,-1.22 -15.17,-2.2 -37.19,-2.69l-139.69 -4.4 -0.73 -0.73 0 -59.45 0.73 -0.73zm-0.73 475.35l0 0.49c0,23.98 7.59,47.22 23,69.72 15.17,18.59 35.72,27.89 61.65,27.89 20.55,0 41.83,-6.36 64.34,-18.59l96.15 -71.68 0 -173.46c-40.12,7.59 -75.84,16.64 -106.91,27.16 -39.15,12.97 -66.05,25.44 -80.98,37.19 -15.66,12.48 -28.38,25.69 -37.92,39.63 -12.97,20.06 -19.33,40.61 -19.33,61.65zm906.66 -450.88l10.03 -1.47 1.47 0c8.56,0 15.9,10.52 22.26,31.56l-0.73 4.89c-2.45,1.96 -11.5,6.12 -27.4,12.23 -10.03,4.4 -20.55,8.81 -31.32,13.7 -11.5,5.14 -30.58,16.88 -57.49,34.98 -17.62,9.54 -34.25,23.49 -50.15,41.59 -15.17,22.02 -23,41.83 -23,59.45l0 431.55 -1.47 1.47 -132.6 0 -1.22 -1.47 0 -480.97c0,-50.64 -16.64,-82.69 -49.66,-95.9 -10.03,-2.45 -19.57,-3.67 -28.62,-3.67l-61.65 0 -1.47 -1.47 0 -57.24 1.47 -0.73 161.96 0c37.43,0 67.28,16.64 89.79,50.15 10.03,18.1 14.93,34.74 14.93,50.15l0 2.2c36.45,-29.6 74.86,-54.31 115.47,-73.88 19.08,-10.52 35.47,-16.15 49.42,-17.13zm1.47 -245.87l182.02 0c40.12,0 69.72,26.18 88.81,78.78 5.87,21.53 8.56,40.12 8.56,56.02l0 104.46 115.47 0 2.2 2.2 0 57.98 -2.2 2.2 -115.47 0 0 417.86c0,40.12 16.64,67.52 49.66,81.71 9.05,3.43 21.04,5.14 35.72,5.14l63.85 0 2.2 2.2 0 63.61 -2.2 1.47 -167.09 0c-35.23,0 -65.81,-15.17 -91.74,-45.75 -17.61,-21.04 -26.42,-55.29 -26.42,-102.51l0 -574.18c0,-52.6 -18.84,-84.89 -56.75,-96.64l-22.02 -2.2 -64.58 0 -2.2 -2.2 0 -47.95 2.2 -2.2zm594.24 221.4l167.58 0c23.97,0 51.86,6.36 83.91,19.33 46.97,21.04 80,53.82 99.57,98.35 5.38,12.72 9.3,25.44 12.23,37.92 4.4,20.55 6.61,36.45 6.61,47.95l0.49 18.6c78.04,-16.15 123.79,-26.18 137.73,-30.09 29.12,-10.52 48.44,-25.45 57.98,-45.02 4.89,-10.03 7.34,-19.08 7.34,-27.4l0 -1.96 0.73 0c5.63,13.7 8.56,27.4 8.56,40.86 0,34.74 -18.84,65.07 -56.76,91.01 -11.5,7.59 -23.98,13.7 -37.92,18.6 -11.01,3.18 -26.18,6.36 -45.26,9.3 -25.69,4.65 -49.91,9.05 -72.41,12.97l0 226.3c0,21.04 3.67,41.84 10.77,62.39 3.92,9.05 9.79,17.86 17.37,25.93 10.52,8.56 21.28,12.72 32.29,12.72l32.78 0 0.73 0.73 0 37.43 -0.73 0.73 -113.27 0c-43.79,0 -74.37,-23.73 -91.74,-70.95 -3.18,-7.34 -6.61,-18.84 -10.03,-34.5l-1.22 -8.56c-72.66,73.15 -147.03,109.6 -223.12,109.6 -27.65,0 -55.53,-5.14 -83.67,-15.66 -9.54,-4.89 -19.33,-10.77 -29.36,-18.1 -36.94,-29.6 -55.29,-64.83 -55.29,-105.93l0 -2.94c0,-30.09 10.03,-61.65 30.09,-94.68 16.64,-25.2 40.61,-48.44 71.68,-69.48 19.57,-13.46 40.86,-25.44 63.85,-36.45 27.15,-13.46 60.42,-26.18 99.57,-38.16 30.58,-8.56 53.09,-12.72 67.28,-12.72 16.39,-2.45 34.99,-5.63 56.02,-9.3l0 -50.88c0,-22.51 -5.38,-48.44 -15.9,-77.55 -3.67,-8.07 -9.05,-17.13 -15.66,-27.15 -8.56,-11.99 -20.55,-20.31 -35.96,-25.2 -2.69,-1.22 -15.17,-2.2 -37.19,-2.69l-139.69 -4.4 -0.73 -0.73 0 -59.45 0.73 -0.73zm-0.73 475.35l0 0.49c0,23.98 7.59,47.22 23,69.72 15.17,18.59 35.72,27.89 61.65,27.89 20.55,0 41.83,-6.36 64.34,-18.59l96.15 -71.68 0 -173.46c-40.12,7.59 -75.84,16.64 -106.91,27.16 -39.15,12.97 -66.05,25.44 -80.98,37.19 -15.66,12.48 -28.38,25.69 -37.92,39.63 -12.97,20.06 -19.33,40.61 -19.33,61.65z"/>
   <g>
    <path class="fil5" d="M1489.8 1248.71l1.47 0.73 0.73 27.15c0,53.58 -20.55,90.28 -61.66,109.85l-11.49 4.16c22.5,11.98 50.15,34.24 83.17,66.79 54.08,65.32 80.98,137.49 80.98,216.51 0,84.41 -31.07,160.01 -93.21,226.3 -65.32,63.61 -140.91,95.42 -226.54,95.42 -98.84,0 -183.24,-42.08 -252.97,-126.24 -43.54,-60.67 -65.08,-124.52 -65.08,-192.05l0 -8.56c0,-94.67 38.9,-176.63 116.7,-245.86 61.16,-48.2 127.95,-72.41 199.88,-72.41l35.23 1.47c54.07,-11.5 96.14,-23.98 126.24,-37.19 21.52,-10.52 37.67,-21.53 48.68,-33.03 9.54,-10.52 15.17,-21.52 17.13,-33.02l0.73 0zm-389.97 425.69c0,86.12 27.15,156.09 80.98,210.15 27.89,23.49 57.24,34.99 88.32,34.99l0.73 0c55.78,0 102.74,-37.19 140.42,-111.8 17.12,-43.79 25.69,-85.14 25.69,-123.8l0 -19.58c0,-67.28 -21.04,-128.19 -62.87,-182.75 -32.54,-35.23 -67.03,-52.84 -103.24,-52.84l-0.73 0c-57,0 -103.25,35.23 -139.21,105.93 -20.06,43.06 -30.09,89.53 -30.09,139.69z"/>
    <path class="fil5" d="M1284.36 2151.47c82.2,32.53 123.3,90.03 123.3,172.71 0,110.34 -62.87,165.63 -188.38,165.63 -125.27,0 -187.89,-55.29 -187.89,-165.63 0,-96.63 57.99,-151.92 174.19,-166.35l78.78 -6.36zm-337.85 -445.76c0,189.2 205.49,293.1 272.78,293.1 101.77,0 152.66,-7.07 152.66,50.89 0,34 -50.89,50.88 -152.66,50.88 -93.21,0 -167.83,17.37 -223.61,52.36 -62.63,39.15 -93.95,96.15 -93.95,171.25 0,148.99 105.69,223.62 317.55,223.62 212.6,0 318.77,-74.62 318.77,-223.62 0,-89.79 -52.84,-152.41 -159.02,-187.88 38.66,-19.08 57.99,-47.96 57.99,-86.6 0,-30.1 -16.88,-56.52 -50.89,-78.78l-234.6 -44.45 -205.02 -220.75z"/>
   </g>
  </g>
 </g>
</svg>
