<?xml version="1.0" encoding="UTF-8" standalone="no"?>
<!-- Created with Inkscape (http://www.inkscape.org/) -->

<svg
   xmlns:dc="http://purl.org/dc/elements/1.1/"
   xmlns:cc="http://creativecommons.org/ns#"
   xmlns:rdf="http://www.w3.org/1999/02/22-rdf-syntax-ns#"
   xmlns:svg="http://www.w3.org/2000/svg"
   xmlns="http://www.w3.org/2000/svg"
   xmlns:sodipodi="http://sodipodi.sourceforge.net/DTD/sodipodi-0.dtd"
   xmlns:inkscape="http://www.inkscape.org/namespaces/inkscape"
   version="1.1"
   id="svg29"
   xml:space="preserve"
   width="1225.826"
   height="424.85599"
   viewBox="0 0 1225.826 424.85599"
   sodipodi:docname="wonderful jogja.svg"
   inkscape:version="0.92.5 (2060ec1f9f, 2020-04-08)"><metadata
     id="metadata35"><rdf:RDF><cc:Work
         rdf:about=""><dc:format>image/svg+xml</dc:format><dc:type
           rdf:resource="http://purl.org/dc/dcmitype/StillImage" /><dc:title></dc:title></cc:Work></rdf:RDF></metadata><defs
     id="defs33" /><sodipodi:namedview
     pagecolor="#ffffff"
     bordercolor="#666666"
     borderopacity="1"
     objecttolerance="10"
     gridtolerance="10"
     guidetolerance="10"
     inkscape:pageopacity="0"
     inkscape:pageshadow="2"
     inkscape:window-width="1294"
     inkscape:window-height="704"
     id="namedview31"
     showgrid="false"
     inkscape:zoom="0.5"
     inkscape:cx="422.1342"
     inkscape:cy="195.78447"
     inkscape:window-x="72"
     inkscape:window-y="27"
     inkscape:window-maximized="1"
     inkscape:current-layer="g37" /><g
     id="g37"
     inkscape:groupmode="layer"
     inkscape:label="ink_ext_XXXXXX"
     transform="matrix(1.3333333,0,0,-1.3333333,0,424.85602)"><path
       inkscape:connector-curvature="0"
       id="path105"
       style="fill:#ffffff;fill-opacity:1;fill-rule:nonzero;stroke:none;stroke-width:0.1"
       d="m 235.33264,216.94508 c 0,0.991 0,1.789 0,2.588 0,7.623 0.004,15.246 -0.008,22.869 -10e-4,0.878 -0.005,1.767 -0.154,2.63 -0.432,2.511 -2.143,3.894 -4.916,4.029 -0.875,0.042 -1.755,0.006 -2.83,0.006 0,1.077 0,1.91 0,2.949 0,0.286 5.763,0.208 6.235,0.207 2.31,-0.004 4.93,0.223 6.705,-1.384 0.553,-0.5 0.991,-1.095 1.352,-1.72 0.293,-0.509 0.567,-1.028 0.977,-1.774 0.672,0.441 1.238,0.787 1.773,1.168 2.51,1.794 5.239,3.121 8.416,3.741 8.308,1.621 14.275,-2.784 16.372,-8.59 0.715,-1.981 0.939,-4.157 1.047,-6.257 0.168,-3.292 0.002,-6.596 0.07,-9.894 0.026,-1.234 0.176,-2.495 0.507,-3.69 0.646,-2.326 1.85,-3.121 4.505,-3.201 1.031,-0.031 2.064,-0.005 3.269,-0.005 0,-1.362 0,-2.423 0,-3.614 -0.571,-0.101 -1.1,-0.27 -1.631,-0.275 -2.754,-0.028 -5.508,-0.044 -8.261,-0.005 -2.737,0.039 -4.427,1.127 -5.171,3.528 -0.409,1.321 -0.59,2.736 -0.616,4.113 -0.079,4.104 0.045,8.211 -0.068,12.313 -0.048,1.74 -0.234,3.542 -0.8,5.192 -1.572,4.586 -6.968,6.838 -11.918,5.126 -2.324,-0.803 -4.228,-2.17 -5.798,-3.883 -1.181,-1.29 -1.529,-2.848 -1.518,-4.525 0.039,-6.377 0.019,-12.754 0.009,-19.132 -0.001,-0.79 -0.071,-1.58 -0.119,-2.56 -2.536,-0.271 -4.882,-0.321 -7.429,0.05" /><path
       inkscape:connector-curvature="0"
       id="path107"
       style="fill:#ffffff;fill-opacity:1;fill-rule:nonzero;stroke:none;stroke-width:0.1"
       d="m 216.49464,234.64208 c -0.142,0.949 -0.234,2.574 -0.652,4.127 -0.835,3.101 -2.159,6.012 -5.087,8.039 -2.959,2.05 -6.422,2.001 -9.016,-0.4 -1.438,-1.33 -2.713,-2.962 -3.517,-4.668 -2.352,-4.989 -2.391,-10.125 -0.295,-15.218 0.854,-2.075 2.096,-3.977 4.03,-5.409 2.816,-2.084 6.381,-2.055 9.089,0.117 0.838,0.672 1.575,1.48 2.212,2.317 2.387,3.136 3.083,6.714 3.236,11.095 z m -28.791,-0.612 c -0.01,5.739 2.281,10.627 6.974,14.449 7.407,6.032 17.85,5.346 24.741,-1.479 7.339,-7.267 6.922,-19.986 -0.88,-26.837 -8.384,-7.362 -21.088,-5.952 -27.376,3.039 -2.284,3.267 -3.453,6.932 -3.459,10.828" /><path
       inkscape:connector-curvature="0"
       id="path109"
       style="fill:#ffffff;fill-opacity:1;fill-rule:nonzero;stroke:none;stroke-width:0.1"
       d="m 338.77264,240.35508 c 1.864,-0.027 3.451,-0.069 5.038,-0.07 2.096,-0.001 4.199,-0.061 6.287,0.073 2.098,0.134 2.777,1.016 2.573,2.931 -0.221,2.065 -1.21,3.779 -2.974,5.086 -2.374,1.759 -5.52,1.695 -7.715,-0.211 -2.354,-2.044 -2.96,-4.7 -3.209,-7.809 z m 10.038,-3.207 c -2.265,0 -4.536,0.089 -6.795,-0.022 -3.049,-0.15 -4.224,-1.34 -4.027,-4.096 0.298,-4.176 2.064,-7.836 5.348,-10.78 3.695,-3.312 8.279,-3.662 13.115,-2.828 0.712,0.122 1.398,0.364 2.1,0.537 0.923,0.228 1.619,-0.048 1.938,-0.865 0.295,-0.754 -0.19,-1.264 -0.851,-1.636 -0.34,-0.191 -0.719,-0.334 -1.097,-0.459 -5.566,-1.838 -11.203,-2.148 -16.911,-0.596 -5.571,1.514 -9.157,4.889 -10.749,9.879 -1.796,5.629 -1.638,11.309 0.297,16.896 4.072,11.758 20.618,11.335 26.365,5.203 1.509,-1.61 2.568,-3.375 2.96,-5.444 0.623,-3.286 -1.469,-5.631 -5.139,-5.732 -2.182,-0.06 -4.369,-0.011 -6.554,-0.011 0,-0.015 0,-0.031 0,-0.046" /><path
       inkscape:connector-curvature="0"
       id="path111"
       style="fill:#ffffff;fill-opacity:1;fill-rule:nonzero;stroke:none;stroke-width:0.1"
       d="m 186.59464,255.35308 c -2.026,0.054 -3.718,0.08 -5.328,0.08 -1.618,0 -3.134,-0.027 -4.633,-0.08 l -0.486,-0.018 v -3.638 l 0.407,-0.075 c 1.817,-0.33 2.676,-0.651 2.963,-1.107 0.234,-0.371 0.174,-0.974 -0.204,-1.997 l -7.375,-16.85 c -0.251,0.462 -0.443,0.817 -0.606,1.184 l -0.235,0.519 -1.555,3.056 c -3.41,6.699 -8.71,17.115 -9.627,18.907 l -0.481,0.941 -0.445,-0.955 c -2.806,-6.023 -9.569,-20.481 -11.436,-24.474 l -6.409,14.822 v 0.013 l -1.679,3.685 c -0.739,1.642 -1.46,2.904 -2.265,3.968 -0.585,0.794 -1.652,1.769 -2.735,1.906 -1.337,0.161 -2.753,0.236 -4.454,0.236 -1.338,0 -2.698,-0.048 -4.013,-0.094 l -0.816,-0.028 v -3.401 l 0.018,-0.341 0.353,-0.102 c 0.154,-0.044 0.312,-0.089 0.552,-0.089 0.004,0 0.22,0.003 0.22,0.003 2.193,0 3.555,-0.947 4.564,-3.183 l 15.508,-30.75 0.514,0.443 c 0.086,0.073 0.12,0.152 0.167,0.247 l 0.056,0.114 c 0.257,0.578 1.006,2.289 2.007,4.577 2.549,5.823 7.505,17.146 9.015,20.369 2.111,-4.356 10.975,-22.685 12.078,-24.976 l 0.487,-1.012 16.298,37.354 0.051,0.087 v 0.087 l 0.157,0.555 -0.633,0.017" /><path
       inkscape:connector-curvature="0"
       id="path113"
       style="fill:#ffffff;fill-opacity:1;fill-rule:nonzero;stroke:none;stroke-width:0.1"
       d="m 308.63864,222.64908 c -4.49,-5.147 -13.658,-4.387 -17.186,1.47 -0.909,1.508 -1.441,3.257 -1.829,4.954 -0.729,3.183 -0.559,6.408 0.036,9.606 0.395,2.123 1.265,4.086 2.664,5.831 3.779,4.714 10.796,5.353 15.502,1.386 1.479,-1.247 2.754,-2.693 3.425,-4.371 v -14.345 c -0.502,-1.642 -1.418,-3.164 -2.612,-4.531 z m 14.687,-2.002 c -2.403,0.149 -3.562,0.998 -4.01,3.128 -0.285,1.356 -0.376,2.762 -0.38,4.146 -0.006,2.193 -0.007,4.386 -0.008,6.579 0,4.767 0.007,9.535 10e-4,14.302 -0.006,4.604 0.278,9.315 -0.212,13.9 -0.35,3.275 -0.89,6.836 -4.93,7.687 -2.883,0.607 -5.865,0.076 -8.771,-0.049 -1.127,-0.049 -1.059,-0.582 -1.036,-1.412 0.002,-0.101 0.06,-1.503 0.028,-1.502 1.016,-0.046 1.812,-0.089 2.609,-0.116 2.152,-0.072 3.598,-0.877 4.27,-2.767 0.169,-0.476 0.295,-0.962 0.401,-1.452 v -15.637 c -0.855,0.653 -1.461,1.101 -2.047,1.569 -1.852,1.478 -3.948,2.544 -6.343,3.11 -7.4,1.75 -13.792,-1.425 -17.789,-6.391 -4.275,-5.31 -4.994,-11.363 -3.681,-17.625 1.523,-7.259 6.501,-11.404 14.571,-12.453 1.197,-0.156 2.417,-0.217 3.627,-0.221 4.576,-0.013 8.107,1.703 10.488,5.286 0.303,0.456 0.702,0.86 1.164,1.417 0.235,-0.443 0.413,-0.628 0.424,-0.82 0.191,-3.276 2.773,-4.662 6.123,-4.62 2.024,0.026 4.048,-0.009 6.071,0.011 1.025,0.01 2.049,0.083 3.149,0.131 0,1.291 0,2.352 0,3.787 -1.472,0 -2.6,-0.058 -3.719,0.012" /><path
       inkscape:connector-curvature="0"
       id="path117"
       style="fill:#ffffff;fill-opacity:1;fill-rule:nonzero;stroke:none;stroke-width:0.1"
       d="m 395.32564,247.76008 c 0,0 -0.184,0.567 -0.5,1.232 -0.053,0.123 -0.114,0.249 -0.185,0.378 -0.008,0.016 -0.02,0.028 -0.028,0.044 -0.282,0.524 -0.633,1.05 -1.035,1.368 -0.003,-0.001 -0.007,-0.01 -0.01,-0.012 -1.49,1.471 -3.675,2.094 -6.001,1.578 -2.477,-0.548 -4.347,-1.872 -5.866,-3.669 -0.404,-0.478 -0.835,-0.938 -1.432,-1.605 -0.293,0.662 -0.441,0.988 -0.582,1.318 -1.177,2.759 -2.766,3.776 -6.048,3.816 -2.022,0.024 -4.045,0.021 -6.068,-0.005 -0.691,-0.009 -1.38,-0.125 -2.138,-0.199 0,-0.982 0,-1.754 0,-2.881 1.194,0 2.077,0.035 2.955,-0.006 2.763,-0.13 4.121,-1.191 4.561,-3.696 0.215,-1.223 0.281,-2.477 0.285,-3.717 0.025,-7.396 0.007,-14.792 0.022,-22.187 10e-4,-0.849 0.117,-1.698 0.175,-2.485 2.785,-0.504 5.167,-0.437 7.05,0.218 0,0.714 -0.002,1.508 0,2.302 0.012,5.272 -0.026,10.545 0.064,15.816 0.033,1.895 0.211,3.816 0.627,5.669 0.348,1.554 0.921,3.139 1.781,4.511 1.723,2.749 5.001,3.139 7.591,1.04 0.521,-0.422 0.813,-1.075 1.285,-1.722 l 2.241,1.854 c 0.053,0.04 0.106,0.084 0.159,0.123 0.13,0.094 0.242,0.191 0.337,0.288 l 0.76,0.629" /><path
       inkscape:connector-curvature="0"
       id="path119"
       style="fill:#ffffff;fill-opacity:1;fill-rule:nonzero;stroke:none;stroke-width:0.1"
       d="m 408.32764,256.55108 v -0.246 c 0,0.082 0,0.164 0,0.246" /><path
       inkscape:connector-curvature="0"
       id="path121"
       style="fill:#ffffff;fill-opacity:1;fill-rule:nonzero;stroke:none;stroke-width:0.1"
       d="m 415.34764,255.49908 v 3.776 c -0.042,-1.244 -0.046,-2.498 0,-3.776" /><path
       inkscape:connector-curvature="0"
       id="path123"
       style="fill:#ffffff;fill-opacity:1;fill-rule:nonzero;stroke:none;stroke-width:0.1"
       d="m 415.34764,259.79908 c 0,0 0.016,-0.007 0.018,-0.008 0.054,1.194 0.141,2.383 0.315,3.568 0.052,0.36 0.179,0.716 0.307,1.062 0.757,2.046 1.889,2.799 4.284,2.888 0.943,0.034 1.885,0.095 2.852,0.145 0,1.054 0,1.879 0,2.957 -3.274,0 -6.336,0.046 -9.396,-0.015 -2.524,-0.05 -4.112,-1.129 -4.752,-3.362 -0.402,-1.401 -0.568,-2.883 -0.617,-4.334 -0.068,-2.035 -0.038,-4.072 -0.031,-6.108 v 0 -0.041 c 0,-0.082 0,-0.164 0,-0.246 v -4.089 h -8.093 v -2.73 h 8.093 v -3.55 l -0.005,0.001 c 0.015,-6.468 0.018,-12.935 -0.015,-19.403 -0.005,-0.866 -0.153,-1.761 -0.42,-2.593 -0.758,-2.353 -2.037,-3.203 -4.74,-3.326 -0.94,-0.043 -1.878,-0.115 -2.933,-0.181 0,-1.28 0,-2.338 0,-3.722 2.8,0 5.447,-0.027 8.094,0.007 3.139,0.039 5.468,1.497 6.34,4.222 0.465,1.453 0.639,3.025 0.654,4.545 0.067,6.814 0.023,13.628 0.037,20.441 0,0.1 0.005,0.201 0.008,0.301 v 3.258 h 6.017 v 2.73 h -6.017 v 3.283 c -0.046,1.278 -0.042,2.532 0,3.776 v 0.524" /><path
       inkscape:connector-curvature="0"
       id="path125"
       style="fill:#ffffff;fill-opacity:1;fill-rule:nonzero;stroke:none;stroke-width:0.1"
       d="m 474.93164,220.64808 c -2.265,0.177 -3.425,1.011 -3.879,3.018 -0.29,1.28 -0.379,2.617 -0.384,3.928 -0.007,2.16 -0.003,4.319 -0.002,6.479 v 6.266 c 0.004,3.084 0.011,6.169 0.009,9.253 0,0.06 -0.008,0.121 -0.009,0.18 v 2.253 h -0.17 -7.151 c 0,-0.975 0,-1.762 0,-2.55 0,-4.503 -0.011,-9.007 0,-13.511 v -6.507 c -0.135,-2.512 -1.197,-4.683 -2.843,-6.649 -2.137,-2.553 -5.055,-3.591 -8.569,-3.077 -3.245,0.474 -5.02,2.465 -6.16,5.06 -1.005,2.289 -1.251,4.69 -1.255,7.124 -0.006,4.18 0.052,8.36 -0.035,12.539 -0.03,1.448 -0.213,2.945 -0.674,4.325 -0.463,1.386 -1.567,2.77 -3.168,3.205 -1.047,0.284 -2.352,0.25 -3.437,0.293 -0.657,0.025 -8.203,0.151 -8.203,-0.289 v -2.915 c 1.206,0 2.234,0.023 3.259,-0.006 2.268,-0.064 3.504,-0.789 4.127,-2.744 0.421,-1.32 0.65,-2.731 0.679,-4.105 0.087,-4.252 0.026,-8.506 0.043,-12.759 0.012,-3.323 1.051,-6.369 3.187,-9.075 5.592,-7.082 17.662,-6.471 21.677,0.572 0.224,0.393 0.645,0.694 1.022,1.087 0.21,-0.309 0.34,-0.422 0.369,-0.554 0.828,-3.64 2.226,-4.729 6.233,-4.773 2.43,-0.026 4.862,-0.02 7.292,0.009 0.61,0.007 1.218,0.156 1.821,0.239 v 3.519 c -1.386,0.058 -2.586,0.071 -3.779,0.165" /><path
       inkscape:connector-curvature="0"
       id="path127"
       style="fill:#ffffff;fill-opacity:1;fill-rule:nonzero;stroke:none;stroke-width:0.1"
       d="m 499.30764,220.62508 c -0.095,0.002 -0.191,0.003 -0.286,0.007 -2.757,0.121 -3.999,1.038 -4.467,3.492 -0.232,1.217 -0.225,2.481 -0.226,3.724 -0.017,11.073 0.042,22.146 -0.061,33.218 -0.018,2.018 -0.461,4.084 -1.079,6.032 -0.69,2.177 -2.476,3.358 -5.106,3.324 -1.985,-0.026 -3.97,-0.002 -5.955,-0.013 -0.932,-0.006 -1.867,0.013 -2.801,0.013 v -0.277 c 0,-0.667 0,-1.334 0,-2.001 0,-0.16 0,-0.321 0,-0.481 v -0.298 c 0.946,0 1.9,0.03 2.844,-0.017 0.847,-0.042 1.693,-0.184 2.41,-0.616 0.015,-0.009 0.03,-0.018 0.045,-0.027 0.247,-0.154 0.472,-0.336 0.668,-0.541 0.79,-0.823 1.169,-1.912 1.373,-2.968 0.277,-1.434 0.313,-2.919 0.316,-4.381 0.023,-11.366 0.01,-22.732 0.016,-34.097 0,-1.026 0.077,-2.052 0.077,-3.078 -0.002,-2.889 1.84,-4.872 5.773,-4.92 1.32,-0.016 2.64,-0.019 3.96,-0.017 v 0 h 5.597 v 0.226 c 0,1.16 0,2.218 0,3.696 h -3.098" /><path
       inkscape:connector-curvature="0"
       id="path141"
       style="fill:#3d84cd;fill-opacity:1;fill-rule:nonzero;stroke:none;stroke-width:0.1"
       d="m 747.11664,90.646075 c 0,0 12.143,-38.974 50.307,-51.316 -4.697,1.52 -10.16,8.402 -13.442,11.75 -9.237,9.419 -17.062,20.373 -22.292,32.51 -7.401,17.175005 -7.283,33.518005 -5.233,51.742005 2.67,23.744 5.002,47.527 6.995,71.338 0.934,11.159 2.218,22.295 2.685,33.488 0.422,10.122 0.593,20.39 -1.44,30.367 -2.003,9.828 -6.516,18.457 -13.522,25.665 -0.211,0.217 -0.423,0.432 -0.637,0.646 -0.082,0.081 -0.717,0.818 -0.796,0.792 1.877,0.622 14.462,0.122 13.964,21.014 0,0 -5.638,-14.182 -17.781,-11.259 -12.143,2.923 -25.371,6.495 -35.888,3.139 -10.517,-3.356 -21.033,-20.1 -21.033,-20.1 0.867,0.433 15.612,12.27 26.743,13.136 10.12,0.433 19.805,-3.465 24.865,-19.054 3.903,-13.858 3.903,-22.374 1.012,-36.809 -2.602,-9.96 -8.529,-24.683 -15.902,-34.643 -6.071,-7.795 -23.13,-25.838 -42.501,-34.788 1.012,0.145 30.069,6.785 50.452,34.211 11.131,19.053 13.878,31.756 15.757,55.718 -0.144,-2.166 5.06,-16.312 0.289,-36.665 -4.192,-16.022 -6.938,-22.518 -22.985,-38.107 -14.456,-11.981 -33.249,-21.941 -47.85,-25.55 -13.01,-3.32 -16.046,1.877 -16.046,1.877 0,0 4.626,-0.722 4.192,3.248 -0.506,2.02 -3.759,3.031 -5.71,1.443 -1.807,-1.443 -2.169,-6.279 0.434,-8.228 2.24,-1.227 9.396,-5.774 27.755,1.155 15.469,5.63 19.733,9.094 19.733,9.094 0,0 -4.987,-6.784 -19.66,-12.486 -9.758,-3.031 -22.335,-6.351 -37.008,-5.052 0.723,-0.361 36.719,-8.95 68.378,8.372 -1.301,-2.31 -21.323,-50.449 -85.942,-49.8 2.602,-1.516 40.116,-21.219005 91.074,24.683 -1.301,-1.732 -4.988,-49.366005 -1.301,-70.802005 21.033,-83.144 71.991,-70.3689997 107.12,-71.01899972 0,0 -79.365,2.59900002 -84.786,90.28999972" /><path
       inkscape:connector-curvature="0"
       id="path143"
       style="fill:#5dbb33;fill-opacity:1;fill-rule:nonzero;stroke:none;stroke-width:0.1"
       d="m 849.17764,200.49408 c 1.904,10.022 -5.979,19.123 -14.915,22.039 -7.698,2.512 -17.079,-0.106 -24.514,-2.524 -7.256,-2.361 -15.28,-6.018 -20.13,-12.154 -6.506,-8.227 -12.144,-17.61 -13.156,-31.756 -0.433,-10.393 -0.433,-37.819 37.153,-54.996 0,0 -30.502,6.64 -37.152,19.486 1.684,-3.253 3,-6.2 5.552,-8.902 2.441,-2.584 5.283,-4.763 8.243,-6.718 8.997,-5.945 19.007,-9.616 29.558,-11.652 3.849,-0.742 7.78,-1.356 11.713,-1.2 3.36,0.133 7.167,0.865 9.413,3.605 0.54,0.659 0.961,1.408 1.26,2.205 0.119,0.318 -0.375,-0.041 -0.458,-0.069 -0.59,-0.202 -1.053,-0.597 -1.703,-0.676 -1.493,-0.183 -2.815,1.234 -2.805,2.691 0.007,1.075 0.666,2.1 1.598,2.638 1.858,1.071 4.106,0.323 5.2,-1.411 1.281,-2.029 0.775,-4.496 -0.639,-6.312 -2.729,-3.503 -7.332,-4.797 -11.577,-5.159 -5.634,-0.48 -11.213,0.686 -16.675,1.936 -5.415,1.238 -10.759,2.675 -15.899,4.808 -0.935,0.388 -1.862,0.795 -2.777,1.227 -0.938,0.441 -1.884,0.915 -2.729,1.518 0.379,-0.271 21.684,-21.760005 58.439,-7.47 -2.641,-1.027 -5.105,-2.661 -7.768,-3.717 -6.407,-2.542 -13.201,-4.179 -20.079,-4.702 -20.309,-1.544 -40.45,8.091 -52.707,24.181 -9.073,11.911 -14.008,27.408 -13.473,42.364 0.639,17.9 7.434,35.409 19.21,48.893 9.839,11.267 22.523,20.039 36.989,24.177 8.923,2.552 19.822,4.152 29.046,2.397 13.661,-2.598 44.236,-23.817 13.444,-46.335 -0.217,0.216 16.046,20.136 -8.023,32.045 -14.746,8.011 -34.695,2.598 -47.923,-7.795 1.301,1.516 57.102,23.745 48.284,-22.662" /><path
       inkscape:connector-curvature="0"
       id="path145"
       style="fill:#d61c7d;fill-opacity:1;fill-rule:nonzero;stroke:none;stroke-width:0.1"
       d="m 812.16964,77.654075 c 0,0 -34.695,5.197 -50.09,58.028005 0,0 -16.914,62.791 29.273,97.434 0,0 46.405,33.128 95.628,8.878 0,0 24.395,-16.781 17.022,-29.988 -2.134,-3.825 -6.555,-7.236 -11.112,-7.278 -4.815,-0.044 -9.052,4.714 -9.596,9.334 0.138,-1.169 3.288,-1.959 4.128,-1.919 5.257,0.248 5.279,8.027 0.687,9.47 -3.061,0.962 -6.608,-1.053 -8.292,-3.521 -1.976,-2.897 -1.891,-7.35 -0.908,-10.607 3.41,-11.303 16.632,-13.325 26.14,-8.9 2.798,1.302 5.398,3.095 7.517,5.345 13.05,13.851 5.331,37.871 -6.432,49.828 -9.974,8.949 -26.31,23.24 -72.136,18.765 -24.973,-2.439 -50.756,-17.096 -67.263,-35.703 -8.182,-9.222 -13.303,-20.209 -17.688,-31.628 -10.499,-27.341 -11.901,-62.969 1.828,-89.43 10.553,-16.456005 29.202,-36.231005 61.294,-38.108005" /><path
       inkscape:connector-curvature="0"
       id="path147"
       style="fill:#f06d24;fill-opacity:1;fill-rule:nonzero;stroke:none;stroke-width:0.1"
       d="m 669.92064,77.221075 c 0,0 54.066,2.021 67.944,57.739005 9.011,36.177 -1.57,76.26 -26.449,103.905 -19.578,21.756 -47.298,33.996 -76.577,34.06 -16.011,0.035 -32.125,-3.429 -46.474,-10.591 -17.567,-8.77 -30.877,-22.917 -39.417,-40.469 -3.184,-6.545 -6.14,-13.246 -8.101,-20.269 -1.082,-3.874 -2.366,-7.878 -2.238,-11.947 0.233,-7.385 10.584,-9.285 12.684,-1.893 0.316,1.114 0.374,2.342 -0.088,3.404 -1.382,3.171 -6.226,2.181 -8.679,1.142 -0.542,-0.108 12.469,53.372 68.848,65.065 0,0 -43.152,-13.425 -48.356,-56.295 0.345,2.842 3.482,6.664 4.924,9.006 4.366,7.087 9.514,13.733 15.404,19.624 13.377,13.382 31.251,21.985 50.333,22.358 18.674,0.364 37.547,-6.912 52.606,-17.634 28.786,-20.495 43.53,-55.614 35.028,-90.3 -5.421,-20.786 -10.842,-47.201005 -51.392,-66.905005" /><path
       inkscape:connector-curvature="0"
       id="path149"
       style="fill:#6844a2;fill-opacity:1;fill-rule:nonzero;stroke:none;stroke-width:0.1"
       d="m 685.38664,220.99108 c -11.415,-0.364 -20.583,3.871 -29.777,6.6 -4.736,1.403 -9.663,2.658 -14.641,3.057 -4.866,0.39 -9.767,-0.658 -14.147,-2.763 -3.461,-1.654 -6.566,-4.019 -9.073,-6.92 -1.449,-1.672 -2.68,-3.516 -3.669,-5.5 0.217,0.433 2.281,11.286 17.027,16.569 11.275,4.044 22.308,-1.274 32.587,-4.859 11.067,-3.872 21.97,-6.175 33.081,-3.733 0.885,0.199 1.77,0.424 2.637,0.684 -4.987,-1.498 -7.086,-2.918 -14.025,-3.135 z m 40.844,76.77 c -12.499,4.564 -24.781,-3.629 -33.107,-12.359 -0.382,-0.399 9.974,8.011 18.535,3.36 -0.104,0 -9.541,1.299 -12.577,-8.877 0,0 17.348,8.764 20.609,-3.794 0.867,-6.166 -2.064,-15.589 -5.638,-20.89 -3.582,-5.3 -9.654,-13.424 -17.243,-15.693 -5.855,-1.412 -9.108,-2.598 -21.355,0.537 -10.955,2.919 -19.845,5.846 -31.772,7.145 -18.258,1.992 -40.428,-6.859 -47.792,-24.718 -0.277,-0.667 -0.529,-1.36 -0.754,-2.053 -0.087,-0.259 -0.642,-2.988 -0.677,-2.996 0.434,0.208 11.059,21.427 30.141,24.025 -0.546,-0.321 -12.577,-6.383 -17.998,-13.857 -4.007,-6.167 -6.609,-12.446 -5.204,-20.674 1.301,-7.041 3.365,-10.176 7.373,-13.745 4.007,-3.576 9.324,-6.72 18.752,-5.309 5.638,1.412 11.172,4.218 12.577,11.259 0.659,4.443 -2.81,9.527 -6.609,9.415 -2.819,-0.321 -4.771,-2.053 -5.204,-4.764 -0.105,-2.052 1.249,-4.321 4.657,-4.321 -1.335,0 -3.001,-1.351 -4.562,-1.403 -6.609,-0.234 -10.487,8.045 -8.821,13.684 3.383,11.493 13.678,15.866 24.937,15.156 6.011,-0.372 10.842,-2.321 15.664,-4.053 6.081,-2.191 12.404,-3.724 18.822,-4.538 5.647,-0.719 12.291,-1.481 17.938,-0.338 4.822,0.978 16.003,3.213 27.278,16.351 7.807,8.514 12.291,21.505 14.026,28.148 3.261,12.472 1.908,30.226 -11.996,35.302" /><text
       xml:space="preserve"
       style="font-size:246.38058472px;line-height:1.25;font-family:sans-serif;letter-spacing:5.71500015px;word-spacing:0px;fill:#ffffff;stroke-width:6.15951443;"
       x="-0.50524282"
       y="-129.38481"
       id="text153"
       transform="scale(1,-1)"><tspan
         sodipodi:role="line"
         id="tspan151"
         x="-0.50524282"
         y="-129.38481"
         style="font-style:normal;font-variant:normal;font-weight:normal;font-stretch:normal;font-size:147.82833862px;font-family:'Visit Indonesia 2011 #2';-inkscape-font-specification:'Visit Indonesia 2011 #2';letter-spacing:4.1624999px;fill:#ffffff;stroke-width:6.15951443;">jogjakarta</tspan></text>
</g></svg>